<?xml version="1.0" encoding="UTF-8" standalone="no"?>
<!DOCTYPE svg PUBLIC "-//W3C//DTD SVG 1.1//EN" "http://www.w3.org/Graphics/SVG/1.1/DTD/svg11.dtd">
<svg width="100%" height="100%" viewBox="0 0 720 720" version="1.1" xmlns="http://www.w3.org/2000/svg" xmlns:xlink="http://www.w3.org/1999/xlink" xml:space="preserve" xmlns:serif="http://www.serif.com/" style="fill-rule:evenodd;clip-rule:evenodd;stroke-linecap:round;stroke-linejoin:round;stroke-miterlimit:1.5;">
    <g transform="matrix(0.666667,0,0,0.666667,0,0)">
        <g transform="matrix(1,0,0,0.982183,0,0)">
            <rect x="0" y="0" width="1080" height="1099.59" style="fill:rgb(2,26,82);"/>
        </g>
        <g transform="matrix(4.4842,0,0,4.4842,-2752.4,-1429.24)">
            <circle cx="650.612" cy="515.875" r="91.576" style="fill:none;stroke:rgb(0,87,175);stroke-width:31.22px;"/>
        </g>
        <g>
            <g transform="matrix(128,0,0,128,363.423,128.281)">
                <path d="M0.237,-0.241C0.208,-0.251 0.181,-0.261 0.157,-0.272C0.133,-0.282 0.112,-0.294 0.095,-0.309C0.078,-0.324 0.064,-0.341 0.055,-0.362C0.045,-0.382 0.04,-0.407 0.04,-0.436C0.04,-0.493 0.062,-0.538 0.106,-0.572C0.149,-0.606 0.21,-0.623 0.289,-0.623C0.318,-0.623 0.344,-0.621 0.369,-0.617C0.394,-0.613 0.415,-0.607 0.433,-0.599C0.45,-0.59 0.464,-0.58 0.474,-0.567C0.484,-0.554 0.489,-0.538 0.489,-0.521C0.489,-0.504 0.485,-0.489 0.477,-0.477C0.469,-0.464 0.459,-0.454 0.448,-0.445C0.433,-0.454 0.414,-0.463 0.389,-0.47C0.364,-0.476 0.337,-0.48 0.308,-0.48C0.278,-0.48 0.256,-0.476 0.242,-0.468C0.228,-0.459 0.221,-0.449 0.221,-0.436C0.221,-0.426 0.225,-0.418 0.234,-0.412C0.243,-0.405 0.256,-0.399 0.273,-0.394L0.326,-0.377C0.389,-0.357 0.437,-0.332 0.471,-0.301C0.504,-0.27 0.521,-0.227 0.521,-0.174C0.521,-0.117 0.499,-0.071 0.454,-0.037C0.409,-0.001 0.344,0.016 0.257,0.016C0.226,0.016 0.198,0.014 0.172,0.009C0.145,0.004 0.122,-0.004 0.103,-0.014C0.083,-0.023 0.067,-0.035 0.057,-0.05C0.046,-0.064 0.04,-0.08 0.04,-0.099C0.04,-0.118 0.046,-0.135 0.057,-0.149C0.068,-0.162 0.081,-0.173 0.094,-0.18C0.113,-0.165 0.135,-0.153 0.163,-0.142C0.19,-0.131 0.219,-0.126 0.251,-0.126C0.284,-0.126 0.307,-0.131 0.32,-0.141C0.333,-0.151 0.34,-0.163 0.34,-0.176C0.34,-0.189 0.335,-0.2 0.324,-0.207C0.313,-0.214 0.298,-0.22 0.279,-0.227L0.237,-0.241Z" style="fill:white;fill-rule:nonzero;"/>
            </g>
            <g transform="matrix(128,0,0,128,433.951,128.281)">
                <path d="M0.222,-0.167C0.222,-0.15 0.228,-0.137 0.239,-0.13C0.25,-0.123 0.265,-0.119 0.285,-0.119C0.295,-0.119 0.305,-0.12 0.316,-0.122C0.327,-0.123 0.336,-0.125 0.344,-0.128C0.35,-0.121 0.355,-0.113 0.36,-0.104C0.364,-0.094 0.366,-0.084 0.366,-0.071C0.366,-0.046 0.357,-0.025 0.338,-0.009C0.319,0.007 0.285,0.015 0.237,0.015C0.178,0.015 0.133,0.002 0.102,-0.025C0.07,-0.052 0.054,-0.095 0.054,-0.155L0.054,-0.583C0.061,-0.585 0.072,-0.587 0.086,-0.59C0.099,-0.592 0.114,-0.593 0.129,-0.593C0.158,-0.593 0.181,-0.588 0.198,-0.578C0.214,-0.567 0.222,-0.545 0.222,-0.512L0.222,-0.448L0.353,-0.448C0.357,-0.441 0.361,-0.432 0.365,-0.421C0.368,-0.409 0.37,-0.397 0.37,-0.384C0.37,-0.361 0.365,-0.344 0.355,-0.334C0.344,-0.323 0.33,-0.318 0.313,-0.318L0.222,-0.318L0.222,-0.167Z" style="fill:white;fill-rule:nonzero;"/>
            </g>
            <g transform="matrix(128,0,0,128,484.383,128.281)">
                <path d="M0.555,-0.243C0.555,-0.202 0.549,-0.165 0.536,-0.133C0.523,-0.1 0.505,-0.073 0.483,-0.051C0.46,-0.029 0.432,-0.012 0.4,-0.001C0.368,0.01 0.332,0.016 0.293,0.016C0.254,0.016 0.218,0.01 0.186,-0.002C0.154,-0.014 0.127,-0.031 0.104,-0.054C0.081,-0.076 0.063,-0.103 0.05,-0.135C0.037,-0.167 0.031,-0.203 0.031,-0.243C0.031,-0.282 0.037,-0.318 0.05,-0.35C0.063,-0.382 0.081,-0.409 0.104,-0.432C0.127,-0.454 0.154,-0.471 0.186,-0.483C0.218,-0.495 0.254,-0.501 0.293,-0.501C0.332,-0.501 0.368,-0.495 0.4,-0.483C0.432,-0.47 0.46,-0.453 0.483,-0.431C0.505,-0.408 0.523,-0.381 0.536,-0.349C0.549,-0.317 0.555,-0.282 0.555,-0.243ZM0.205,-0.243C0.205,-0.202 0.213,-0.171 0.229,-0.15C0.244,-0.128 0.266,-0.117 0.294,-0.117C0.322,-0.117 0.343,-0.128 0.359,-0.15C0.374,-0.172 0.381,-0.203 0.381,-0.243C0.381,-0.283 0.373,-0.314 0.358,-0.336C0.343,-0.357 0.321,-0.368 0.293,-0.368C0.265,-0.368 0.243,-0.357 0.228,-0.336C0.213,-0.314 0.205,-0.283 0.205,-0.243Z" style="fill:white;fill-rule:nonzero;"/>
            </g>
            <g transform="matrix(128,0,0,128,559.391,128.281)">
                <path d="M0.275,-0.501C0.315,-0.501 0.352,-0.496 0.387,-0.486C0.421,-0.475 0.45,-0.459 0.475,-0.438C0.5,-0.417 0.519,-0.39 0.533,-0.358C0.547,-0.325 0.554,-0.287 0.554,-0.242C0.554,-0.199 0.548,-0.162 0.536,-0.13C0.524,-0.098 0.507,-0.071 0.485,-0.05C0.463,-0.028 0.437,-0.012 0.406,-0.001C0.375,0.01 0.34,0.015 0.302,0.015C0.273,0.015 0.247,0.011 0.222,0.002L0.222,0.168C0.215,0.17 0.205,0.172 0.19,0.175C0.175,0.177 0.16,0.178 0.145,0.178C0.13,0.178 0.117,0.177 0.106,0.175C0.094,0.173 0.084,0.169 0.076,0.163C0.068,0.157 0.062,0.149 0.058,0.139C0.054,0.128 0.052,0.115 0.052,0.098L0.052,-0.382C0.052,-0.4 0.056,-0.415 0.064,-0.426C0.071,-0.437 0.082,-0.448 0.095,-0.457C0.116,-0.47 0.141,-0.481 0.172,-0.489C0.203,-0.497 0.237,-0.501 0.275,-0.501ZM0.277,-0.119C0.346,-0.119 0.38,-0.16 0.38,-0.242C0.38,-0.285 0.372,-0.316 0.355,-0.337C0.337,-0.358 0.313,-0.368 0.281,-0.368C0.268,-0.368 0.257,-0.367 0.247,-0.364C0.237,-0.361 0.228,-0.357 0.221,-0.353L0.221,-0.133C0.229,-0.129 0.238,-0.126 0.247,-0.123C0.256,-0.12 0.266,-0.119 0.277,-0.119Z" style="fill:white;fill-rule:nonzero;"/>
            </g>
            <g transform="matrix(128,0,0,128,659.871,128.281)">
                <path d="M0.289,-0.501C0.327,-0.501 0.362,-0.496 0.393,-0.487C0.424,-0.477 0.45,-0.464 0.471,-0.449C0.484,-0.44 0.495,-0.429 0.503,-0.418C0.51,-0.407 0.514,-0.392 0.514,-0.374L0.514,-0.024C0.514,0.011 0.507,0.042 0.494,0.068C0.481,0.093 0.463,0.115 0.44,0.132C0.417,0.149 0.39,0.161 0.359,0.169C0.327,0.177 0.294,0.181 0.259,0.181C0.198,0.181 0.151,0.173 0.116,0.157C0.081,0.14 0.064,0.114 0.064,0.077C0.064,0.062 0.067,0.048 0.074,0.037C0.08,0.025 0.087,0.016 0.095,0.01C0.114,0.021 0.136,0.03 0.161,0.037C0.185,0.044 0.21,0.048 0.236,0.048C0.272,0.048 0.301,0.042 0.322,0.03C0.343,0.018 0.354,-0.001 0.354,-0.028L0.354,-0.044C0.327,-0.032 0.293,-0.026 0.254,-0.026C0.224,-0.026 0.196,-0.031 0.169,-0.04C0.141,-0.048 0.118,-0.063 0.098,-0.082C0.077,-0.1 0.061,-0.125 0.049,-0.155C0.036,-0.185 0.03,-0.221 0.03,-0.262C0.03,-0.303 0.037,-0.338 0.05,-0.368C0.063,-0.398 0.081,-0.423 0.104,-0.443C0.127,-0.462 0.154,-0.477 0.186,-0.487C0.217,-0.496 0.252,-0.501 0.289,-0.501ZM0.351,-0.356C0.346,-0.359 0.339,-0.361 0.331,-0.364C0.322,-0.367 0.31,-0.368 0.297,-0.368C0.264,-0.368 0.24,-0.359 0.224,-0.341C0.207,-0.322 0.199,-0.296 0.199,-0.262C0.199,-0.223 0.207,-0.196 0.224,-0.179C0.24,-0.162 0.261,-0.153 0.286,-0.153C0.313,-0.153 0.335,-0.159 0.351,-0.172L0.351,-0.356Z" style="fill:white;fill-rule:nonzero;"/>
            </g>
            <g transform="matrix(128,0,0,128,732.447,128.281)">
                <path d="M0.048,-0.621C0.048,-0.646 0.056,-0.668 0.074,-0.685C0.091,-0.702 0.113,-0.711 0.141,-0.711C0.169,-0.711 0.192,-0.702 0.209,-0.685C0.226,-0.668 0.234,-0.646 0.234,-0.621C0.234,-0.596 0.226,-0.574 0.209,-0.557C0.192,-0.54 0.169,-0.531 0.141,-0.531C0.113,-0.531 0.091,-0.54 0.074,-0.557C0.056,-0.574 0.048,-0.596 0.048,-0.621ZM0.226,-0.001C0.219,0 0.208,0.002 0.194,0.005C0.179,0.007 0.165,0.008 0.15,0.008C0.135,0.008 0.122,0.007 0.111,0.005C0.099,0.003 0.089,-0.001 0.081,-0.007C0.073,-0.013 0.067,-0.021 0.063,-0.032C0.058,-0.042 0.056,-0.055 0.056,-0.072L0.056,-0.479C0.063,-0.48 0.074,-0.482 0.089,-0.485C0.103,-0.487 0.117,-0.488 0.132,-0.488C0.147,-0.488 0.16,-0.487 0.172,-0.485C0.183,-0.483 0.193,-0.479 0.201,-0.473C0.209,-0.467 0.215,-0.459 0.22,-0.449C0.224,-0.438 0.226,-0.425 0.226,-0.408L0.226,-0.001Z" style="fill:white;fill-rule:nonzero;"/>
            </g>
            <g transform="matrix(128,0,0,128,768.543,128.281)">
                <path d="M0.377,-0.013C0.368,-0.006 0.354,0 0.336,0.005C0.318,0.01 0.298,0.012 0.275,0.012C0.249,0.012 0.227,0.009 0.208,0.002C0.189,-0.005 0.175,-0.015 0.168,-0.03C0.162,-0.041 0.155,-0.057 0.147,-0.078C0.138,-0.098 0.129,-0.121 0.12,-0.146C0.111,-0.17 0.101,-0.197 0.091,-0.226C0.081,-0.255 0.071,-0.283 0.063,-0.311C0.054,-0.339 0.045,-0.366 0.038,-0.392C0.031,-0.418 0.025,-0.441 0.02,-0.461C0.029,-0.47 0.042,-0.478 0.058,-0.486C0.073,-0.493 0.09,-0.496 0.109,-0.496C0.132,-0.496 0.152,-0.491 0.167,-0.482C0.182,-0.472 0.193,-0.454 0.2,-0.427L0.239,-0.274C0.246,-0.244 0.253,-0.217 0.26,-0.193C0.267,-0.168 0.272,-0.149 0.275,-0.136L0.28,-0.136C0.293,-0.185 0.306,-0.24 0.32,-0.3C0.334,-0.36 0.347,-0.419 0.358,-0.477C0.369,-0.483 0.382,-0.488 0.397,-0.491C0.411,-0.494 0.425,-0.496 0.438,-0.496C0.461,-0.496 0.481,-0.491 0.497,-0.481C0.513,-0.471 0.521,-0.454 0.521,-0.429C0.521,-0.418 0.519,-0.403 0.514,-0.383C0.509,-0.362 0.502,-0.339 0.495,-0.314C0.487,-0.288 0.478,-0.261 0.468,-0.232C0.457,-0.203 0.447,-0.175 0.436,-0.148C0.425,-0.121 0.415,-0.095 0.405,-0.072C0.394,-0.048 0.385,-0.028 0.377,-0.013Z" style="fill:white;fill-rule:nonzero;"/>
            </g>
            <g transform="matrix(128,0,0,128,838.303,128.281)">
                <path d="M0.048,-0.621C0.048,-0.646 0.056,-0.668 0.074,-0.685C0.091,-0.702 0.113,-0.711 0.141,-0.711C0.169,-0.711 0.192,-0.702 0.209,-0.685C0.226,-0.668 0.234,-0.646 0.234,-0.621C0.234,-0.596 0.226,-0.574 0.209,-0.557C0.192,-0.54 0.169,-0.531 0.141,-0.531C0.113,-0.531 0.091,-0.54 0.074,-0.557C0.056,-0.574 0.048,-0.596 0.048,-0.621ZM0.226,-0.001C0.219,0 0.208,0.002 0.194,0.005C0.179,0.007 0.165,0.008 0.15,0.008C0.135,0.008 0.122,0.007 0.111,0.005C0.099,0.003 0.089,-0.001 0.081,-0.007C0.073,-0.013 0.067,-0.021 0.063,-0.032C0.058,-0.042 0.056,-0.055 0.056,-0.072L0.056,-0.479C0.063,-0.48 0.074,-0.482 0.089,-0.485C0.103,-0.487 0.117,-0.488 0.132,-0.488C0.147,-0.488 0.16,-0.487 0.172,-0.485C0.183,-0.483 0.193,-0.479 0.201,-0.473C0.209,-0.467 0.215,-0.459 0.22,-0.449C0.224,-0.438 0.226,-0.425 0.226,-0.408L0.226,-0.001Z" style="fill:white;fill-rule:nonzero;"/>
            </g>
            <g transform="matrix(128,0,0,128,874.399,128.281)">
                <path d="M0.36,-0.308C0.36,-0.329 0.354,-0.344 0.343,-0.354C0.331,-0.363 0.315,-0.368 0.295,-0.368C0.282,-0.368 0.269,-0.366 0.256,-0.363C0.243,-0.36 0.231,-0.355 0.222,-0.348L0.222,-0.001C0.215,0.001 0.205,0.003 0.191,0.005C0.176,0.007 0.161,0.008 0.146,0.008C0.131,0.008 0.118,0.007 0.107,0.005C0.095,0.003 0.085,-0.001 0.077,-0.007C0.069,-0.013 0.063,-0.021 0.059,-0.032C0.054,-0.042 0.052,-0.055 0.052,-0.072L0.052,-0.372C0.052,-0.39 0.056,-0.405 0.064,-0.416C0.071,-0.427 0.082,-0.438 0.095,-0.447C0.118,-0.463 0.146,-0.476 0.181,-0.486C0.215,-0.496 0.253,-0.501 0.295,-0.501C0.37,-0.501 0.428,-0.485 0.469,-0.452C0.51,-0.419 0.53,-0.373 0.53,-0.314L0.53,-0.001C0.523,0.001 0.513,0.003 0.499,0.005C0.484,0.007 0.469,0.008 0.454,0.008C0.439,0.008 0.426,0.007 0.415,0.005C0.403,0.003 0.393,-0.001 0.385,-0.007C0.377,-0.013 0.371,-0.021 0.367,-0.032C0.362,-0.042 0.36,-0.055 0.36,-0.072L0.36,-0.308Z" style="fill:white;fill-rule:nonzero;"/>
            </g>
            <g transform="matrix(128,0,0,128,949.023,128.281)">
                <path d="M0.289,-0.501C0.327,-0.501 0.362,-0.496 0.393,-0.487C0.424,-0.477 0.45,-0.464 0.471,-0.449C0.484,-0.44 0.495,-0.429 0.503,-0.418C0.51,-0.407 0.514,-0.392 0.514,-0.374L0.514,-0.024C0.514,0.011 0.507,0.042 0.494,0.068C0.481,0.093 0.463,0.115 0.44,0.132C0.417,0.149 0.39,0.161 0.359,0.169C0.327,0.177 0.294,0.181 0.259,0.181C0.198,0.181 0.151,0.173 0.116,0.157C0.081,0.14 0.064,0.114 0.064,0.077C0.064,0.062 0.067,0.048 0.074,0.037C0.08,0.025 0.087,0.016 0.095,0.01C0.114,0.021 0.136,0.03 0.161,0.037C0.185,0.044 0.21,0.048 0.236,0.048C0.272,0.048 0.301,0.042 0.322,0.03C0.343,0.018 0.354,-0.001 0.354,-0.028L0.354,-0.044C0.327,-0.032 0.293,-0.026 0.254,-0.026C0.224,-0.026 0.196,-0.031 0.169,-0.04C0.141,-0.048 0.118,-0.063 0.098,-0.082C0.077,-0.1 0.061,-0.125 0.049,-0.155C0.036,-0.185 0.03,-0.221 0.03,-0.262C0.03,-0.303 0.037,-0.338 0.05,-0.368C0.063,-0.398 0.081,-0.423 0.104,-0.443C0.127,-0.462 0.154,-0.477 0.186,-0.487C0.217,-0.496 0.252,-0.501 0.289,-0.501ZM0.351,-0.356C0.346,-0.359 0.339,-0.361 0.331,-0.364C0.322,-0.367 0.31,-0.368 0.297,-0.368C0.264,-0.368 0.24,-0.359 0.224,-0.341C0.207,-0.322 0.199,-0.296 0.199,-0.262C0.199,-0.223 0.207,-0.196 0.224,-0.179C0.24,-0.162 0.261,-0.153 0.286,-0.153C0.313,-0.153 0.335,-0.159 0.351,-0.172L0.351,-0.356Z" style="fill:white;fill-rule:nonzero;"/>
            </g>
            <g transform="matrix(128,0,0,128,225.055,256.281)">
                <path d="M0.235,-0.125C0.244,-0.122 0.256,-0.121 0.271,-0.12C0.286,-0.119 0.3,-0.118 0.313,-0.118C0.34,-0.118 0.362,-0.124 0.38,-0.135C0.397,-0.146 0.406,-0.163 0.406,-0.186C0.406,-0.208 0.399,-0.224 0.384,-0.233C0.369,-0.242 0.347,-0.247 0.317,-0.247L0.235,-0.247L0.235,-0.125ZM0.235,-0.369L0.308,-0.369C0.337,-0.369 0.358,-0.374 0.371,-0.385C0.384,-0.396 0.39,-0.411 0.39,-0.432C0.39,-0.45 0.383,-0.464 0.368,-0.475C0.353,-0.486 0.33,-0.491 0.3,-0.491C0.29,-0.491 0.279,-0.491 0.266,-0.49C0.253,-0.489 0.242,-0.488 0.235,-0.487L0.235,-0.369ZM0.3,0.016C0.289,0.016 0.275,0.016 0.26,0.015C0.245,0.014 0.229,0.013 0.213,0.011C0.196,0.009 0.18,0.007 0.164,0.004C0.148,0.001 0.133,-0.004 0.12,-0.009C0.083,-0.023 0.065,-0.047 0.065,-0.082L0.065,-0.549C0.065,-0.563 0.069,-0.574 0.077,-0.582C0.084,-0.589 0.095,-0.595 0.108,-0.6C0.131,-0.608 0.159,-0.614 0.193,-0.618C0.227,-0.621 0.262,-0.623 0.298,-0.623C0.383,-0.623 0.449,-0.609 0.495,-0.58C0.541,-0.551 0.564,-0.507 0.564,-0.447C0.564,-0.417 0.555,-0.391 0.538,-0.37C0.521,-0.348 0.497,-0.332 0.468,-0.322C0.501,-0.313 0.529,-0.296 0.552,-0.271C0.574,-0.246 0.585,-0.215 0.585,-0.178C0.585,-0.112 0.561,-0.063 0.512,-0.032C0.463,0 0.392,0.016 0.3,0.016Z" style="fill:white;fill-rule:nonzero;"/>
            </g>
            <g transform="matrix(128,0,0,128,303.903,256.281)">
                <path d="M0.309,0.016C0.27,0.016 0.233,0.011 0.2,-0.001C0.166,-0.012 0.136,-0.028 0.112,-0.05C0.087,-0.072 0.067,-0.1 0.053,-0.133C0.038,-0.166 0.031,-0.205 0.031,-0.25C0.031,-0.294 0.038,-0.332 0.053,-0.364C0.067,-0.395 0.086,-0.421 0.109,-0.442C0.132,-0.462 0.159,-0.477 0.189,-0.487C0.219,-0.496 0.25,-0.501 0.281,-0.501C0.316,-0.501 0.349,-0.496 0.378,-0.485C0.407,-0.474 0.432,-0.46 0.453,-0.441C0.474,-0.422 0.49,-0.4 0.502,-0.374C0.513,-0.348 0.519,-0.32 0.519,-0.289C0.519,-0.266 0.513,-0.249 0.5,-0.237C0.487,-0.225 0.47,-0.217 0.447,-0.214L0.2,-0.177C0.207,-0.155 0.222,-0.139 0.245,-0.128C0.268,-0.117 0.294,-0.111 0.323,-0.111C0.35,-0.111 0.376,-0.115 0.401,-0.122C0.425,-0.129 0.445,-0.137 0.46,-0.146C0.471,-0.139 0.48,-0.13 0.487,-0.118C0.494,-0.106 0.498,-0.093 0.498,-0.08C0.498,-0.05 0.484,-0.028 0.456,-0.013C0.435,-0.002 0.411,0.006 0.384,0.01C0.357,0.014 0.332,0.016 0.309,0.016ZM0.281,-0.377C0.265,-0.377 0.251,-0.374 0.24,-0.369C0.228,-0.364 0.218,-0.357 0.211,-0.349C0.204,-0.34 0.198,-0.331 0.195,-0.321C0.191,-0.31 0.189,-0.3 0.188,-0.289L0.359,-0.317C0.357,-0.33 0.35,-0.344 0.337,-0.357C0.324,-0.37 0.306,-0.377 0.281,-0.377Z" style="fill:white;fill-rule:nonzero;"/>
            </g>
            <g transform="matrix(128,0,0,128,374.175,256.281)">
                <path d="M0.069,-0C0.058,-0.009 0.05,-0.02 0.044,-0.033C0.037,-0.046 0.034,-0.06 0.034,-0.076C0.034,-0.089 0.037,-0.102 0.044,-0.116C0.05,-0.129 0.058,-0.141 0.067,-0.152L0.239,-0.354L0.055,-0.354C0.051,-0.361 0.047,-0.371 0.044,-0.382C0.04,-0.393 0.038,-0.406 0.038,-0.419C0.038,-0.442 0.043,-0.459 0.054,-0.47C0.064,-0.48 0.078,-0.485 0.095,-0.485L0.41,-0.485C0.421,-0.476 0.429,-0.465 0.436,-0.452C0.442,-0.439 0.445,-0.425 0.445,-0.409C0.445,-0.396 0.442,-0.383 0.436,-0.37C0.429,-0.357 0.421,-0.344 0.412,-0.333L0.244,-0.131L0.44,-0.131C0.444,-0.124 0.448,-0.114 0.452,-0.103C0.455,-0.092 0.457,-0.079 0.457,-0.066C0.457,-0.043 0.452,-0.026 0.442,-0.016C0.431,-0.005 0.417,-0 0.4,-0L0.069,-0Z" style="fill:white;fill-rule:nonzero;"/>
            </g>
            <g transform="matrix(128,0,0,128,434.463,256.281)">
                <path d="M0.555,-0.243C0.555,-0.202 0.549,-0.165 0.536,-0.133C0.523,-0.1 0.505,-0.073 0.483,-0.051C0.46,-0.029 0.432,-0.012 0.4,-0.001C0.368,0.01 0.332,0.016 0.293,0.016C0.254,0.016 0.218,0.01 0.186,-0.002C0.154,-0.014 0.127,-0.031 0.104,-0.054C0.081,-0.076 0.063,-0.103 0.05,-0.135C0.037,-0.167 0.031,-0.203 0.031,-0.243C0.031,-0.282 0.037,-0.318 0.05,-0.35C0.063,-0.382 0.081,-0.409 0.104,-0.432C0.127,-0.454 0.154,-0.471 0.186,-0.483C0.218,-0.495 0.254,-0.501 0.293,-0.501C0.332,-0.501 0.368,-0.495 0.4,-0.483C0.432,-0.47 0.46,-0.453 0.483,-0.431C0.505,-0.408 0.523,-0.381 0.536,-0.349C0.549,-0.317 0.555,-0.282 0.555,-0.243ZM0.205,-0.243C0.205,-0.202 0.213,-0.171 0.229,-0.15C0.244,-0.128 0.266,-0.117 0.294,-0.117C0.322,-0.117 0.343,-0.128 0.359,-0.15C0.374,-0.172 0.381,-0.203 0.381,-0.243C0.381,-0.283 0.373,-0.314 0.358,-0.336C0.343,-0.357 0.321,-0.368 0.293,-0.368C0.265,-0.368 0.243,-0.357 0.228,-0.336C0.213,-0.314 0.205,-0.283 0.205,-0.243Z" style="fill:white;fill-rule:nonzero;"/>
            </g>
            <g transform="matrix(128,0,0,128,509.471,256.281)">
                <path d="M0.462,-0.145C0.462,-0.094 0.443,-0.055 0.405,-0.026C0.367,0.003 0.311,0.017 0.237,0.017C0.209,0.017 0.183,0.015 0.159,0.011C0.135,0.007 0.115,0.001 0.098,-0.008C0.081,-0.016 0.067,-0.026 0.058,-0.039C0.048,-0.052 0.043,-0.067 0.043,-0.084C0.043,-0.1 0.046,-0.114 0.053,-0.125C0.06,-0.136 0.068,-0.145 0.077,-0.152C0.096,-0.141 0.119,-0.132 0.144,-0.124C0.169,-0.115 0.197,-0.111 0.23,-0.111C0.251,-0.111 0.267,-0.114 0.278,-0.12C0.289,-0.126 0.294,-0.134 0.294,-0.144C0.294,-0.153 0.29,-0.161 0.282,-0.166C0.274,-0.171 0.261,-0.176 0.242,-0.179L0.212,-0.185C0.154,-0.196 0.111,-0.214 0.083,-0.239C0.054,-0.263 0.04,-0.298 0.04,-0.343C0.04,-0.368 0.045,-0.39 0.056,-0.41C0.067,-0.43 0.082,-0.447 0.101,-0.46C0.12,-0.473 0.143,-0.484 0.171,-0.491C0.198,-0.498 0.227,-0.502 0.26,-0.502C0.285,-0.502 0.308,-0.5 0.33,-0.497C0.351,-0.493 0.37,-0.487 0.386,-0.48C0.402,-0.473 0.415,-0.463 0.424,-0.452C0.433,-0.44 0.438,-0.426 0.438,-0.41C0.438,-0.395 0.435,-0.382 0.43,-0.371C0.424,-0.36 0.417,-0.35 0.408,-0.343C0.403,-0.346 0.395,-0.35 0.384,-0.354C0.373,-0.357 0.362,-0.361 0.349,-0.364C0.336,-0.367 0.324,-0.369 0.311,-0.371C0.298,-0.373 0.286,-0.374 0.275,-0.374C0.253,-0.374 0.236,-0.372 0.224,-0.367C0.212,-0.362 0.206,-0.354 0.206,-0.343C0.206,-0.336 0.209,-0.33 0.216,-0.325C0.223,-0.32 0.235,-0.316 0.254,-0.312L0.285,-0.305C0.349,-0.29 0.395,-0.27 0.422,-0.245C0.448,-0.219 0.462,-0.186 0.462,-0.145Z" style="fill:white;fill-rule:nonzero;"/>
            </g>
            <g transform="matrix(128,0,0,128,598.047,256.281)">
                <path d="M0.285,-0.501C0.312,-0.501 0.339,-0.497 0.366,-0.49C0.392,-0.482 0.415,-0.47 0.434,-0.455C0.454,-0.468 0.476,-0.479 0.502,-0.488C0.527,-0.497 0.557,-0.501 0.592,-0.501C0.617,-0.501 0.642,-0.498 0.667,-0.491C0.691,-0.484 0.713,-0.474 0.732,-0.46C0.751,-0.445 0.766,-0.426 0.777,-0.403C0.788,-0.379 0.794,-0.35 0.794,-0.316L0.794,-0.001C0.787,0.001 0.777,0.003 0.763,0.005C0.748,0.007 0.733,0.008 0.718,0.008C0.703,0.008 0.69,0.007 0.679,0.005C0.667,0.003 0.657,-0.001 0.649,-0.007C0.641,-0.013 0.635,-0.021 0.631,-0.032C0.626,-0.042 0.624,-0.055 0.624,-0.072L0.624,-0.311C0.624,-0.331 0.618,-0.345 0.607,-0.355C0.596,-0.364 0.58,-0.368 0.561,-0.368C0.552,-0.368 0.542,-0.366 0.531,-0.362C0.52,-0.357 0.512,-0.353 0.507,-0.348C0.508,-0.345 0.508,-0.343 0.508,-0.341L0.508,-0.001C0.501,0.001 0.49,0.003 0.476,0.005C0.461,0.007 0.447,0.008 0.432,0.008C0.417,0.008 0.404,0.007 0.393,0.005C0.381,0.003 0.371,-0.001 0.363,-0.007C0.355,-0.013 0.349,-0.021 0.345,-0.032C0.34,-0.042 0.338,-0.055 0.338,-0.072L0.338,-0.311C0.338,-0.331 0.332,-0.345 0.32,-0.355C0.307,-0.364 0.292,-0.368 0.275,-0.368C0.263,-0.368 0.253,-0.366 0.244,-0.363C0.235,-0.359 0.228,-0.355 0.222,-0.352L0.222,-0.001C0.215,0.001 0.205,0.003 0.191,0.005C0.176,0.007 0.161,0.008 0.146,0.008C0.131,0.008 0.118,0.007 0.107,0.005C0.095,0.003 0.085,-0.001 0.077,-0.007C0.069,-0.013 0.063,-0.021 0.059,-0.032C0.054,-0.042 0.052,-0.055 0.052,-0.072L0.052,-0.374C0.052,-0.392 0.056,-0.406 0.064,-0.417C0.071,-0.428 0.082,-0.438 0.095,-0.447C0.118,-0.463 0.146,-0.476 0.18,-0.486C0.213,-0.496 0.248,-0.501 0.285,-0.501Z" style="fill:white;fill-rule:nonzero;"/>
            </g>
            <g transform="matrix(128,0,0,128,706.335,256.281)">
                <path d="M0.555,-0.243C0.555,-0.202 0.549,-0.165 0.536,-0.133C0.523,-0.1 0.505,-0.073 0.483,-0.051C0.46,-0.029 0.432,-0.012 0.4,-0.001C0.368,0.01 0.332,0.016 0.293,0.016C0.254,0.016 0.218,0.01 0.186,-0.002C0.154,-0.014 0.127,-0.031 0.104,-0.054C0.081,-0.076 0.063,-0.103 0.05,-0.135C0.037,-0.167 0.031,-0.203 0.031,-0.243C0.031,-0.282 0.037,-0.318 0.05,-0.35C0.063,-0.382 0.081,-0.409 0.104,-0.432C0.127,-0.454 0.154,-0.471 0.186,-0.483C0.218,-0.495 0.254,-0.501 0.293,-0.501C0.332,-0.501 0.368,-0.495 0.4,-0.483C0.432,-0.47 0.46,-0.453 0.483,-0.431C0.505,-0.408 0.523,-0.381 0.536,-0.349C0.549,-0.317 0.555,-0.282 0.555,-0.243ZM0.205,-0.243C0.205,-0.202 0.213,-0.171 0.229,-0.15C0.244,-0.128 0.266,-0.117 0.294,-0.117C0.322,-0.117 0.343,-0.128 0.359,-0.15C0.374,-0.172 0.381,-0.203 0.381,-0.243C0.381,-0.283 0.373,-0.314 0.358,-0.336C0.343,-0.357 0.321,-0.368 0.293,-0.368C0.265,-0.368 0.243,-0.357 0.228,-0.336C0.213,-0.314 0.205,-0.283 0.205,-0.243Z" style="fill:white;fill-rule:nonzero;"/>
            </g>
            <g transform="matrix(128,0,0,128,781.343,256.281)">
                <path d="M0.36,-0.308C0.36,-0.329 0.354,-0.344 0.343,-0.354C0.331,-0.363 0.315,-0.368 0.295,-0.368C0.282,-0.368 0.269,-0.366 0.256,-0.363C0.243,-0.36 0.231,-0.355 0.222,-0.348L0.222,-0.001C0.215,0.001 0.205,0.003 0.191,0.005C0.176,0.007 0.161,0.008 0.146,0.008C0.131,0.008 0.118,0.007 0.107,0.005C0.095,0.003 0.085,-0.001 0.077,-0.007C0.069,-0.013 0.063,-0.021 0.059,-0.032C0.054,-0.042 0.052,-0.055 0.052,-0.072L0.052,-0.372C0.052,-0.39 0.056,-0.405 0.064,-0.416C0.071,-0.427 0.082,-0.438 0.095,-0.447C0.118,-0.463 0.146,-0.476 0.181,-0.486C0.215,-0.496 0.253,-0.501 0.295,-0.501C0.37,-0.501 0.428,-0.485 0.469,-0.452C0.51,-0.419 0.53,-0.373 0.53,-0.314L0.53,-0.001C0.523,0.001 0.513,0.003 0.499,0.005C0.484,0.007 0.469,0.008 0.454,0.008C0.439,0.008 0.426,0.007 0.415,0.005C0.403,0.003 0.393,-0.001 0.385,-0.007C0.377,-0.013 0.371,-0.021 0.367,-0.032C0.362,-0.042 0.36,-0.055 0.36,-0.072L0.36,-0.308Z" style="fill:white;fill-rule:nonzero;"/>
            </g>
            <g transform="matrix(128,0,0,128,855.967,256.281)">
                <path d="M0.309,0.016C0.27,0.016 0.233,0.011 0.2,-0.001C0.166,-0.012 0.136,-0.028 0.112,-0.05C0.087,-0.072 0.067,-0.1 0.053,-0.133C0.038,-0.166 0.031,-0.205 0.031,-0.25C0.031,-0.294 0.038,-0.332 0.053,-0.364C0.067,-0.395 0.086,-0.421 0.109,-0.442C0.132,-0.462 0.159,-0.477 0.189,-0.487C0.219,-0.496 0.25,-0.501 0.281,-0.501C0.316,-0.501 0.349,-0.496 0.378,-0.485C0.407,-0.474 0.432,-0.46 0.453,-0.441C0.474,-0.422 0.49,-0.4 0.502,-0.374C0.513,-0.348 0.519,-0.32 0.519,-0.289C0.519,-0.266 0.513,-0.249 0.5,-0.237C0.487,-0.225 0.47,-0.217 0.447,-0.214L0.2,-0.177C0.207,-0.155 0.222,-0.139 0.245,-0.128C0.268,-0.117 0.294,-0.111 0.323,-0.111C0.35,-0.111 0.376,-0.115 0.401,-0.122C0.425,-0.129 0.445,-0.137 0.46,-0.146C0.471,-0.139 0.48,-0.13 0.487,-0.118C0.494,-0.106 0.498,-0.093 0.498,-0.08C0.498,-0.05 0.484,-0.028 0.456,-0.013C0.435,-0.002 0.411,0.006 0.384,0.01C0.357,0.014 0.332,0.016 0.309,0.016ZM0.281,-0.377C0.265,-0.377 0.251,-0.374 0.24,-0.369C0.228,-0.364 0.218,-0.357 0.211,-0.349C0.204,-0.34 0.198,-0.331 0.195,-0.321C0.191,-0.31 0.189,-0.3 0.188,-0.289L0.359,-0.317C0.357,-0.33 0.35,-0.344 0.337,-0.357C0.324,-0.37 0.306,-0.377 0.281,-0.377Z" style="fill:white;fill-rule:nonzero;"/>
            </g>
            <g transform="matrix(128,0,0,128,925.727,256.281)">
                <path d="M0.128,-0.124C0.121,-0.141 0.113,-0.159 0.105,-0.18C0.096,-0.201 0.088,-0.224 0.079,-0.251C0.07,-0.278 0.06,-0.308 0.051,-0.343C0.041,-0.377 0.031,-0.416 0.02,-0.461C0.029,-0.47 0.042,-0.478 0.058,-0.486C0.073,-0.493 0.09,-0.496 0.109,-0.496C0.132,-0.496 0.152,-0.491 0.167,-0.482C0.182,-0.472 0.194,-0.454 0.201,-0.427L0.28,-0.152L0.284,-0.152C0.292,-0.175 0.3,-0.199 0.308,-0.226C0.315,-0.253 0.323,-0.28 0.33,-0.309C0.337,-0.337 0.344,-0.365 0.351,-0.394C0.357,-0.422 0.362,-0.45 0.367,-0.477C0.391,-0.49 0.417,-0.496 0.446,-0.496C0.469,-0.496 0.489,-0.491 0.504,-0.481C0.519,-0.471 0.527,-0.454 0.527,-0.429C0.527,-0.411 0.525,-0.39 0.52,-0.367C0.515,-0.343 0.509,-0.318 0.502,-0.291C0.494,-0.264 0.485,-0.237 0.475,-0.209C0.464,-0.18 0.453,-0.152 0.442,-0.125C0.431,-0.098 0.419,-0.072 0.407,-0.048C0.395,-0.023 0.383,-0.001 0.372,0.018C0.353,0.051 0.336,0.077 0.32,0.098C0.304,0.119 0.289,0.135 0.274,0.147C0.259,0.158 0.245,0.166 0.23,0.171C0.215,0.175 0.2,0.177 0.184,0.177C0.156,0.177 0.133,0.169 0.116,0.152C0.099,0.135 0.088,0.114 0.085,0.087C0.106,0.07 0.128,0.052 0.149,0.032C0.17,0.011 0.19,-0.01 0.207,-0.031C0.196,-0.034 0.184,-0.042 0.171,-0.055C0.158,-0.067 0.143,-0.09 0.128,-0.124Z" style="fill:white;fill-rule:nonzero;"/>
            </g>
            <g transform="matrix(128,0,0,128,991.135,256.281)">
                <path d="M0.022,-0.081C0.022,-0.109 0.031,-0.132 0.048,-0.151C0.065,-0.17 0.089,-0.179 0.119,-0.179C0.149,-0.179 0.173,-0.17 0.19,-0.151C0.207,-0.132 0.216,-0.109 0.216,-0.081C0.216,-0.053 0.207,-0.03 0.19,-0.011C0.173,0.008 0.149,0.017 0.119,0.017C0.089,0.017 0.065,0.008 0.048,-0.011C0.031,-0.03 0.022,-0.053 0.022,-0.081Z" style="fill:white;fill-rule:nonzero;"/>
            </g>
            <g transform="matrix(96,0,0,96,612.447,376.281)">
                <path d="M0.237,-0.241C0.208,-0.251 0.181,-0.261 0.157,-0.272C0.133,-0.282 0.112,-0.294 0.095,-0.309C0.078,-0.324 0.064,-0.341 0.055,-0.362C0.045,-0.382 0.04,-0.407 0.04,-0.436C0.04,-0.493 0.062,-0.538 0.106,-0.572C0.149,-0.606 0.21,-0.623 0.289,-0.623C0.318,-0.623 0.344,-0.621 0.369,-0.617C0.394,-0.613 0.415,-0.607 0.433,-0.599C0.45,-0.59 0.464,-0.58 0.474,-0.567C0.484,-0.554 0.489,-0.538 0.489,-0.521C0.489,-0.504 0.485,-0.489 0.477,-0.477C0.469,-0.464 0.459,-0.454 0.448,-0.445C0.433,-0.454 0.414,-0.463 0.389,-0.47C0.364,-0.476 0.337,-0.48 0.308,-0.48C0.278,-0.48 0.256,-0.476 0.242,-0.468C0.228,-0.459 0.221,-0.449 0.221,-0.436C0.221,-0.426 0.225,-0.418 0.234,-0.412C0.243,-0.405 0.256,-0.399 0.273,-0.394L0.326,-0.377C0.389,-0.357 0.437,-0.332 0.471,-0.301C0.504,-0.27 0.521,-0.227 0.521,-0.174C0.521,-0.117 0.499,-0.071 0.454,-0.037C0.409,-0.001 0.344,0.016 0.257,0.016C0.226,0.016 0.198,0.014 0.172,0.009C0.145,0.004 0.122,-0.004 0.103,-0.014C0.083,-0.023 0.067,-0.035 0.057,-0.05C0.046,-0.064 0.04,-0.08 0.04,-0.099C0.04,-0.118 0.046,-0.135 0.057,-0.149C0.068,-0.162 0.081,-0.173 0.094,-0.18C0.113,-0.165 0.135,-0.153 0.163,-0.142C0.19,-0.131 0.219,-0.126 0.251,-0.126C0.284,-0.126 0.307,-0.131 0.32,-0.141C0.333,-0.151 0.34,-0.163 0.34,-0.176C0.34,-0.189 0.335,-0.2 0.324,-0.207C0.313,-0.214 0.298,-0.22 0.279,-0.227L0.237,-0.241Z" style="fill:white;fill-rule:nonzero;"/>
            </g>
            <g transform="matrix(96,0,0,96,664.383,376.281)">
                <path d="M0.329,-0.015C0.32,-0.007 0.307,-0 0.291,0.005C0.275,0.01 0.256,0.012 0.234,0.012C0.207,0.012 0.183,0.008 0.163,0.001C0.143,-0.007 0.13,-0.018 0.123,-0.032C0.116,-0.048 0.107,-0.073 0.098,-0.108C0.088,-0.143 0.078,-0.181 0.069,-0.222C0.06,-0.263 0.051,-0.305 0.043,-0.348C0.034,-0.391 0.028,-0.428 0.023,-0.461C0.032,-0.47 0.045,-0.478 0.061,-0.486C0.076,-0.493 0.093,-0.496 0.112,-0.496C0.135,-0.496 0.155,-0.491 0.17,-0.481C0.185,-0.47 0.194,-0.452 0.197,-0.427C0.204,-0.376 0.209,-0.335 0.214,-0.302C0.219,-0.269 0.223,-0.242 0.226,-0.221C0.229,-0.2 0.231,-0.184 0.233,-0.173C0.234,-0.162 0.236,-0.153 0.237,-0.146L0.241,-0.146C0.243,-0.157 0.247,-0.172 0.252,-0.193C0.257,-0.213 0.262,-0.236 0.269,-0.262C0.276,-0.288 0.283,-0.316 0.29,-0.347C0.297,-0.377 0.305,-0.407 0.312,-0.437C0.325,-0.444 0.339,-0.45 0.352,-0.454C0.365,-0.458 0.381,-0.46 0.4,-0.46C0.423,-0.46 0.443,-0.456 0.46,-0.449C0.477,-0.442 0.487,-0.43 0.492,-0.415C0.5,-0.386 0.508,-0.357 0.515,-0.33C0.522,-0.302 0.529,-0.276 0.535,-0.253C0.541,-0.229 0.546,-0.208 0.551,-0.19C0.556,-0.171 0.559,-0.157 0.561,-0.146L0.566,-0.146C0.573,-0.197 0.58,-0.251 0.588,-0.306C0.595,-0.361 0.601,-0.418 0.607,-0.475C0.619,-0.482 0.632,-0.488 0.645,-0.491C0.658,-0.494 0.672,-0.496 0.685,-0.496C0.708,-0.496 0.728,-0.491 0.743,-0.481C0.758,-0.471 0.766,-0.454 0.766,-0.429C0.766,-0.418 0.764,-0.402 0.761,-0.381C0.758,-0.36 0.753,-0.336 0.748,-0.309C0.743,-0.282 0.737,-0.254 0.73,-0.225C0.723,-0.196 0.716,-0.167 0.709,-0.14C0.702,-0.113 0.695,-0.088 0.689,-0.066C0.682,-0.044 0.677,-0.027 0.672,-0.015C0.663,-0.007 0.648,-0 0.629,0.005C0.61,0.01 0.589,0.012 0.567,0.012C0.511,0.012 0.478,-0.002 0.468,-0.03C0.464,-0.042 0.459,-0.057 0.453,-0.076C0.447,-0.094 0.441,-0.114 0.434,-0.136C0.427,-0.158 0.421,-0.181 0.415,-0.205C0.409,-0.228 0.404,-0.251 0.4,-0.273C0.395,-0.25 0.39,-0.226 0.383,-0.201C0.376,-0.175 0.37,-0.151 0.363,-0.128C0.356,-0.104 0.349,-0.082 0.343,-0.063C0.337,-0.043 0.332,-0.027 0.329,-0.015Z" style="fill:white;fill-rule:nonzero;"/>
            </g>
            <g transform="matrix(96,0,0,96,740.319,376.281)">
                <path d="M0.048,-0.621C0.048,-0.646 0.056,-0.668 0.074,-0.685C0.091,-0.702 0.113,-0.711 0.141,-0.711C0.169,-0.711 0.192,-0.702 0.209,-0.685C0.226,-0.668 0.234,-0.646 0.234,-0.621C0.234,-0.596 0.226,-0.574 0.209,-0.557C0.192,-0.54 0.169,-0.531 0.141,-0.531C0.113,-0.531 0.091,-0.54 0.074,-0.557C0.056,-0.574 0.048,-0.596 0.048,-0.621ZM0.226,-0.001C0.219,0 0.208,0.002 0.194,0.005C0.179,0.007 0.165,0.008 0.15,0.008C0.135,0.008 0.122,0.007 0.111,0.005C0.099,0.003 0.089,-0.001 0.081,-0.007C0.073,-0.013 0.067,-0.021 0.063,-0.032C0.058,-0.042 0.056,-0.055 0.056,-0.072L0.056,-0.479C0.063,-0.48 0.074,-0.482 0.089,-0.485C0.103,-0.487 0.117,-0.488 0.132,-0.488C0.147,-0.488 0.16,-0.487 0.172,-0.485C0.183,-0.483 0.193,-0.479 0.201,-0.473C0.209,-0.467 0.215,-0.459 0.22,-0.449C0.224,-0.438 0.226,-0.425 0.226,-0.408L0.226,-0.001Z" style="fill:white;fill-rule:nonzero;"/>
            </g>
            <g transform="matrix(96,0,0,96,767.391,376.281)">
                <path d="M0.222,-0.167C0.222,-0.15 0.228,-0.137 0.239,-0.13C0.25,-0.123 0.265,-0.119 0.285,-0.119C0.295,-0.119 0.305,-0.12 0.316,-0.122C0.327,-0.123 0.336,-0.125 0.344,-0.128C0.35,-0.121 0.355,-0.113 0.36,-0.104C0.364,-0.094 0.366,-0.084 0.366,-0.071C0.366,-0.046 0.357,-0.025 0.338,-0.009C0.319,0.007 0.285,0.015 0.237,0.015C0.178,0.015 0.133,0.002 0.102,-0.025C0.07,-0.052 0.054,-0.095 0.054,-0.155L0.054,-0.583C0.061,-0.585 0.072,-0.587 0.086,-0.59C0.099,-0.592 0.114,-0.593 0.129,-0.593C0.158,-0.593 0.181,-0.588 0.198,-0.578C0.214,-0.567 0.222,-0.545 0.222,-0.512L0.222,-0.448L0.353,-0.448C0.357,-0.441 0.361,-0.432 0.365,-0.421C0.368,-0.409 0.37,-0.397 0.37,-0.384C0.37,-0.361 0.365,-0.344 0.355,-0.334C0.344,-0.323 0.33,-0.318 0.313,-0.318L0.222,-0.318L0.222,-0.167Z" style="fill:white;fill-rule:nonzero;"/>
            </g>
            <g transform="matrix(96,0,0,96,805.215,376.281)">
                <path d="M0.326,-0.367C0.309,-0.367 0.294,-0.364 0.279,-0.359C0.264,-0.354 0.251,-0.346 0.24,-0.336C0.229,-0.325 0.22,-0.312 0.213,-0.297C0.206,-0.282 0.203,-0.264 0.203,-0.243C0.203,-0.202 0.215,-0.171 0.239,-0.15C0.262,-0.129 0.291,-0.119 0.325,-0.119C0.345,-0.119 0.362,-0.121 0.377,-0.126C0.392,-0.131 0.405,-0.136 0.416,-0.141C0.429,-0.132 0.439,-0.122 0.446,-0.111C0.453,-0.099 0.456,-0.086 0.456,-0.071C0.456,-0.044 0.443,-0.023 0.417,-0.008C0.391,0.008 0.355,0.015 0.309,0.015C0.267,0.015 0.229,0.009 0.195,-0.004C0.161,-0.016 0.132,-0.033 0.108,-0.056C0.083,-0.078 0.064,-0.105 0.051,-0.136C0.038,-0.167 0.031,-0.202 0.031,-0.24C0.031,-0.284 0.038,-0.323 0.053,-0.356C0.067,-0.389 0.086,-0.416 0.111,-0.437C0.136,-0.458 0.164,-0.474 0.197,-0.485C0.229,-0.496 0.263,-0.501 0.299,-0.501C0.347,-0.501 0.384,-0.492 0.41,-0.475C0.436,-0.458 0.449,-0.435 0.449,-0.408C0.449,-0.395 0.446,-0.384 0.44,-0.373C0.434,-0.362 0.427,-0.352 0.419,-0.344C0.408,-0.349 0.394,-0.355 0.378,-0.36C0.362,-0.365 0.345,-0.367 0.326,-0.367Z" style="fill:white;fill-rule:nonzero;"/>
            </g>
            <g transform="matrix(96,0,0,96,852.159,376.281)">
                <path d="M0.532,-0.001C0.525,0.001 0.515,0.003 0.501,0.005C0.486,0.007 0.471,0.008 0.456,0.008C0.441,0.008 0.428,0.007 0.417,0.005C0.405,0.003 0.395,-0.001 0.387,-0.007C0.379,-0.013 0.373,-0.021 0.369,-0.032C0.364,-0.042 0.362,-0.055 0.362,-0.072L0.362,-0.294C0.362,-0.321 0.355,-0.341 0.342,-0.352C0.328,-0.363 0.311,-0.368 0.291,-0.368C0.278,-0.368 0.265,-0.366 0.253,-0.363C0.241,-0.36 0.231,-0.356 0.224,-0.351L0.224,-0.001C0.217,0.001 0.207,0.003 0.193,0.005C0.178,0.007 0.163,0.008 0.148,0.008C0.133,0.008 0.12,0.007 0.109,0.005C0.097,0.003 0.087,-0.001 0.079,-0.007C0.071,-0.013 0.065,-0.021 0.061,-0.032C0.056,-0.042 0.054,-0.055 0.054,-0.072L0.054,-0.652C0.061,-0.653 0.072,-0.655 0.087,-0.658C0.101,-0.66 0.115,-0.661 0.13,-0.661C0.145,-0.661 0.158,-0.66 0.17,-0.658C0.181,-0.656 0.191,-0.652 0.199,-0.646C0.207,-0.64 0.213,-0.632 0.218,-0.622C0.222,-0.611 0.224,-0.598 0.224,-0.581L0.224,-0.483C0.233,-0.486 0.246,-0.49 0.264,-0.495C0.281,-0.499 0.301,-0.501 0.322,-0.501C0.388,-0.501 0.44,-0.485 0.477,-0.452C0.514,-0.419 0.532,-0.369 0.532,-0.304L0.532,-0.001Z" style="fill:white;fill-rule:nonzero;"/>
            </g>
            <g transform="matrix(96,0,0,96,927.519,376.281)">
                <path d="M0.222,-0.167C0.222,-0.15 0.228,-0.137 0.239,-0.13C0.25,-0.123 0.265,-0.119 0.285,-0.119C0.295,-0.119 0.305,-0.12 0.316,-0.122C0.327,-0.123 0.336,-0.125 0.344,-0.128C0.35,-0.121 0.355,-0.113 0.36,-0.104C0.364,-0.094 0.366,-0.084 0.366,-0.071C0.366,-0.046 0.357,-0.025 0.338,-0.009C0.319,0.007 0.285,0.015 0.237,0.015C0.178,0.015 0.133,0.002 0.102,-0.025C0.07,-0.052 0.054,-0.095 0.054,-0.155L0.054,-0.583C0.061,-0.585 0.072,-0.587 0.086,-0.59C0.099,-0.592 0.114,-0.593 0.129,-0.593C0.158,-0.593 0.181,-0.588 0.198,-0.578C0.214,-0.567 0.222,-0.545 0.222,-0.512L0.222,-0.448L0.353,-0.448C0.357,-0.441 0.361,-0.432 0.365,-0.421C0.368,-0.409 0.37,-0.397 0.37,-0.384C0.37,-0.361 0.365,-0.344 0.355,-0.334C0.344,-0.323 0.33,-0.318 0.313,-0.318L0.222,-0.318L0.222,-0.167Z" style="fill:white;fill-rule:nonzero;"/>
            </g>
            <g transform="matrix(96,0,0,96,965.343,376.281)">
                <path d="M0.555,-0.243C0.555,-0.202 0.549,-0.165 0.536,-0.133C0.523,-0.1 0.505,-0.073 0.483,-0.051C0.46,-0.029 0.432,-0.012 0.4,-0.001C0.368,0.01 0.332,0.016 0.293,0.016C0.254,0.016 0.218,0.01 0.186,-0.002C0.154,-0.014 0.127,-0.031 0.104,-0.054C0.081,-0.076 0.063,-0.103 0.05,-0.135C0.037,-0.167 0.031,-0.203 0.031,-0.243C0.031,-0.282 0.037,-0.318 0.05,-0.35C0.063,-0.382 0.081,-0.409 0.104,-0.432C0.127,-0.454 0.154,-0.471 0.186,-0.483C0.218,-0.495 0.254,-0.501 0.293,-0.501C0.332,-0.501 0.368,-0.495 0.4,-0.483C0.432,-0.47 0.46,-0.453 0.483,-0.431C0.505,-0.408 0.523,-0.381 0.536,-0.349C0.549,-0.317 0.555,-0.282 0.555,-0.243ZM0.205,-0.243C0.205,-0.202 0.213,-0.171 0.229,-0.15C0.244,-0.128 0.266,-0.117 0.294,-0.117C0.322,-0.117 0.343,-0.128 0.359,-0.15C0.374,-0.172 0.381,-0.203 0.381,-0.243C0.381,-0.283 0.373,-0.314 0.358,-0.336C0.343,-0.357 0.321,-0.368 0.293,-0.368C0.265,-0.368 0.243,-0.357 0.228,-0.336C0.213,-0.314 0.205,-0.283 0.205,-0.243Z" style="fill:white;fill-rule:nonzero;"/>
            </g>
            <g transform="matrix(96,0,0,96,731.583,472.281)">
                <path d="M0.239,-0.13C0.246,-0.129 0.255,-0.128 0.266,-0.127C0.277,-0.126 0.287,-0.125 0.296,-0.125C0.319,-0.125 0.339,-0.128 0.359,-0.135C0.378,-0.142 0.394,-0.152 0.408,-0.166C0.421,-0.18 0.432,-0.198 0.44,-0.221C0.447,-0.243 0.451,-0.27 0.451,-0.301C0.451,-0.361 0.437,-0.406 0.409,-0.437C0.381,-0.467 0.344,-0.482 0.297,-0.482C0.288,-0.482 0.278,-0.482 0.269,-0.481C0.259,-0.48 0.249,-0.479 0.239,-0.478L0.239,-0.13ZM0.295,0.016C0.284,0.016 0.271,0.016 0.256,0.015C0.241,0.014 0.226,0.013 0.211,0.011C0.195,0.009 0.179,0.007 0.164,0.004C0.148,0.001 0.133,-0.004 0.12,-0.009C0.083,-0.023 0.065,-0.047 0.065,-0.082L0.065,-0.549C0.065,-0.563 0.069,-0.574 0.077,-0.582C0.084,-0.589 0.095,-0.595 0.108,-0.6C0.137,-0.609 0.167,-0.616 0.199,-0.619C0.231,-0.622 0.26,-0.623 0.285,-0.623C0.337,-0.623 0.384,-0.617 0.427,-0.604C0.469,-0.591 0.505,-0.572 0.536,-0.546C0.566,-0.519 0.589,-0.486 0.606,-0.446C0.623,-0.406 0.631,-0.359 0.631,-0.304C0.631,-0.251 0.623,-0.204 0.607,-0.165C0.591,-0.125 0.568,-0.091 0.539,-0.065C0.509,-0.038 0.473,-0.017 0.432,-0.004C0.391,0.009 0.345,0.016 0.295,0.016Z" style="fill:white;fill-rule:nonzero;"/>
            </g>
            <g transform="matrix(96,0,0,96,795.519,472.281)">
                <path d="M0.048,-0.621C0.048,-0.646 0.056,-0.668 0.074,-0.685C0.091,-0.702 0.113,-0.711 0.141,-0.711C0.169,-0.711 0.192,-0.702 0.209,-0.685C0.226,-0.668 0.234,-0.646 0.234,-0.621C0.234,-0.596 0.226,-0.574 0.209,-0.557C0.192,-0.54 0.169,-0.531 0.141,-0.531C0.113,-0.531 0.091,-0.54 0.074,-0.557C0.056,-0.574 0.048,-0.596 0.048,-0.621ZM0.226,-0.001C0.219,0 0.208,0.002 0.194,0.005C0.179,0.007 0.165,0.008 0.15,0.008C0.135,0.008 0.122,0.007 0.111,0.005C0.099,0.003 0.089,-0.001 0.081,-0.007C0.073,-0.013 0.067,-0.021 0.063,-0.032C0.058,-0.042 0.056,-0.055 0.056,-0.072L0.056,-0.479C0.063,-0.48 0.074,-0.482 0.089,-0.485C0.103,-0.487 0.117,-0.488 0.132,-0.488C0.147,-0.488 0.16,-0.487 0.172,-0.485C0.183,-0.483 0.193,-0.479 0.201,-0.473C0.209,-0.467 0.215,-0.459 0.22,-0.449C0.224,-0.438 0.226,-0.425 0.226,-0.408L0.226,-0.001Z" style="fill:white;fill-rule:nonzero;"/>
            </g>
            <g transform="matrix(96,0,0,96,822.591,472.281)">
                <path d="M0.289,-0.501C0.327,-0.501 0.362,-0.496 0.393,-0.487C0.424,-0.477 0.45,-0.464 0.471,-0.449C0.484,-0.44 0.495,-0.429 0.503,-0.418C0.51,-0.407 0.514,-0.392 0.514,-0.374L0.514,-0.024C0.514,0.011 0.507,0.042 0.494,0.068C0.481,0.093 0.463,0.115 0.44,0.132C0.417,0.149 0.39,0.161 0.359,0.169C0.327,0.177 0.294,0.181 0.259,0.181C0.198,0.181 0.151,0.173 0.116,0.157C0.081,0.14 0.064,0.114 0.064,0.077C0.064,0.062 0.067,0.048 0.074,0.037C0.08,0.025 0.087,0.016 0.095,0.01C0.114,0.021 0.136,0.03 0.161,0.037C0.185,0.044 0.21,0.048 0.236,0.048C0.272,0.048 0.301,0.042 0.322,0.03C0.343,0.018 0.354,-0.001 0.354,-0.028L0.354,-0.044C0.327,-0.032 0.293,-0.026 0.254,-0.026C0.224,-0.026 0.196,-0.031 0.169,-0.04C0.141,-0.048 0.118,-0.063 0.098,-0.082C0.077,-0.1 0.061,-0.125 0.049,-0.155C0.036,-0.185 0.03,-0.221 0.03,-0.262C0.03,-0.303 0.037,-0.338 0.05,-0.368C0.063,-0.398 0.081,-0.423 0.104,-0.443C0.127,-0.462 0.154,-0.477 0.186,-0.487C0.217,-0.496 0.252,-0.501 0.289,-0.501ZM0.351,-0.356C0.346,-0.359 0.339,-0.361 0.331,-0.364C0.322,-0.367 0.31,-0.368 0.297,-0.368C0.264,-0.368 0.24,-0.359 0.224,-0.341C0.207,-0.322 0.199,-0.296 0.199,-0.262C0.199,-0.223 0.207,-0.196 0.224,-0.179C0.24,-0.162 0.261,-0.153 0.286,-0.153C0.313,-0.153 0.335,-0.159 0.351,-0.172L0.351,-0.356Z" style="fill:white;fill-rule:nonzero;"/>
            </g>
            <g transform="matrix(96,0,0,96,877.023,472.281)">
                <path d="M0.048,-0.621C0.048,-0.646 0.056,-0.668 0.074,-0.685C0.091,-0.702 0.113,-0.711 0.141,-0.711C0.169,-0.711 0.192,-0.702 0.209,-0.685C0.226,-0.668 0.234,-0.646 0.234,-0.621C0.234,-0.596 0.226,-0.574 0.209,-0.557C0.192,-0.54 0.169,-0.531 0.141,-0.531C0.113,-0.531 0.091,-0.54 0.074,-0.557C0.056,-0.574 0.048,-0.596 0.048,-0.621ZM0.226,-0.001C0.219,0 0.208,0.002 0.194,0.005C0.179,0.007 0.165,0.008 0.15,0.008C0.135,0.008 0.122,0.007 0.111,0.005C0.099,0.003 0.089,-0.001 0.081,-0.007C0.073,-0.013 0.067,-0.021 0.063,-0.032C0.058,-0.042 0.056,-0.055 0.056,-0.072L0.056,-0.479C0.063,-0.48 0.074,-0.482 0.089,-0.485C0.103,-0.487 0.117,-0.488 0.132,-0.488C0.147,-0.488 0.16,-0.487 0.172,-0.485C0.183,-0.483 0.193,-0.479 0.201,-0.473C0.209,-0.467 0.215,-0.459 0.22,-0.449C0.224,-0.438 0.226,-0.425 0.226,-0.408L0.226,-0.001Z" style="fill:white;fill-rule:nonzero;"/>
            </g>
            <g transform="matrix(96,0,0,96,904.095,472.281)">
                <path d="M0.222,-0.167C0.222,-0.15 0.228,-0.137 0.239,-0.13C0.25,-0.123 0.265,-0.119 0.285,-0.119C0.295,-0.119 0.305,-0.12 0.316,-0.122C0.327,-0.123 0.336,-0.125 0.344,-0.128C0.35,-0.121 0.355,-0.113 0.36,-0.104C0.364,-0.094 0.366,-0.084 0.366,-0.071C0.366,-0.046 0.357,-0.025 0.338,-0.009C0.319,0.007 0.285,0.015 0.237,0.015C0.178,0.015 0.133,0.002 0.102,-0.025C0.07,-0.052 0.054,-0.095 0.054,-0.155L0.054,-0.583C0.061,-0.585 0.072,-0.587 0.086,-0.59C0.099,-0.592 0.114,-0.593 0.129,-0.593C0.158,-0.593 0.181,-0.588 0.198,-0.578C0.214,-0.567 0.222,-0.545 0.222,-0.512L0.222,-0.448L0.353,-0.448C0.357,-0.441 0.361,-0.432 0.365,-0.421C0.368,-0.409 0.37,-0.397 0.37,-0.384C0.37,-0.361 0.365,-0.344 0.355,-0.334C0.344,-0.323 0.33,-0.318 0.313,-0.318L0.222,-0.318L0.222,-0.167Z" style="fill:white;fill-rule:nonzero;"/>
            </g>
            <g transform="matrix(96,0,0,96,942.495,472.281)">
                <path d="M0.26,-0.108C0.271,-0.108 0.284,-0.109 0.298,-0.112C0.311,-0.114 0.321,-0.117 0.328,-0.121L0.328,-0.201L0.256,-0.195C0.237,-0.194 0.222,-0.19 0.21,-0.183C0.198,-0.176 0.192,-0.166 0.192,-0.153C0.192,-0.14 0.197,-0.129 0.208,-0.121C0.218,-0.112 0.235,-0.108 0.26,-0.108ZM0.252,-0.501C0.288,-0.501 0.321,-0.497 0.351,-0.49C0.38,-0.483 0.405,-0.472 0.427,-0.457C0.448,-0.442 0.464,-0.423 0.475,-0.4C0.486,-0.377 0.492,-0.349 0.492,-0.318L0.492,-0.094C0.492,-0.077 0.487,-0.063 0.478,-0.052C0.468,-0.041 0.456,-0.031 0.443,-0.023C0.4,0.003 0.339,0.016 0.26,0.016C0.225,0.016 0.193,0.013 0.165,0.006C0.136,-0.001 0.112,-0.011 0.092,-0.024C0.071,-0.037 0.055,-0.054 0.045,-0.075C0.034,-0.096 0.028,-0.12 0.028,-0.147C0.028,-0.193 0.042,-0.228 0.069,-0.253C0.096,-0.278 0.139,-0.293 0.196,-0.299L0.327,-0.313L0.327,-0.32C0.327,-0.339 0.319,-0.353 0.302,-0.362C0.285,-0.37 0.26,-0.374 0.228,-0.374C0.203,-0.374 0.178,-0.371 0.154,-0.366C0.13,-0.361 0.108,-0.354 0.089,-0.346C0.08,-0.352 0.073,-0.361 0.067,-0.374C0.061,-0.386 0.058,-0.399 0.058,-0.412C0.058,-0.429 0.062,-0.443 0.071,-0.454C0.079,-0.464 0.092,-0.473 0.109,-0.48C0.128,-0.487 0.151,-0.493 0.178,-0.496C0.204,-0.499 0.229,-0.501 0.252,-0.501Z" style="fill:white;fill-rule:nonzero;"/>
            </g>
            <g transform="matrix(96,0,0,96,994.719,472.281)">
                <path d="M0.225,-0.001C0.218,0 0.207,0.002 0.193,0.005C0.178,0.007 0.164,0.008 0.149,0.008C0.134,0.008 0.121,0.007 0.11,0.005C0.098,0.003 0.088,-0.001 0.08,-0.007C0.072,-0.013 0.066,-0.021 0.062,-0.032C0.057,-0.042 0.055,-0.055 0.055,-0.072L0.055,-0.652C0.062,-0.653 0.073,-0.655 0.088,-0.658C0.102,-0.66 0.116,-0.661 0.131,-0.661C0.146,-0.661 0.159,-0.66 0.171,-0.658C0.182,-0.656 0.192,-0.652 0.2,-0.646C0.208,-0.64 0.214,-0.632 0.219,-0.622C0.223,-0.611 0.225,-0.598 0.225,-0.581L0.225,-0.001Z" style="fill:white;fill-rule:nonzero;"/>
            </g>
            <g transform="matrix(96,0,0,96,747.711,568.281)">
                <path d="M0.035,-0.304C0.035,-0.356 0.043,-0.402 0.06,-0.442C0.076,-0.482 0.098,-0.516 0.127,-0.543C0.155,-0.57 0.188,-0.59 0.227,-0.604C0.265,-0.618 0.306,-0.625 0.351,-0.625C0.396,-0.625 0.437,-0.618 0.476,-0.604C0.514,-0.59 0.547,-0.57 0.576,-0.543C0.605,-0.516 0.627,-0.482 0.644,-0.442C0.66,-0.402 0.668,-0.356 0.668,-0.304C0.668,-0.252 0.66,-0.206 0.644,-0.166C0.628,-0.125 0.606,-0.091 0.578,-0.065C0.549,-0.038 0.516,-0.017 0.477,-0.003C0.438,0.011 0.396,0.018 0.351,0.018C0.306,0.018 0.264,0.011 0.225,-0.004C0.186,-0.018 0.153,-0.039 0.125,-0.066C0.097,-0.093 0.075,-0.127 0.059,-0.167C0.043,-0.207 0.035,-0.253 0.035,-0.304ZM0.215,-0.304C0.215,-0.243 0.227,-0.198 0.252,-0.168C0.277,-0.138 0.31,-0.123 0.351,-0.123C0.393,-0.123 0.426,-0.138 0.451,-0.168C0.476,-0.198 0.488,-0.243 0.488,-0.304C0.488,-0.364 0.476,-0.409 0.452,-0.439C0.427,-0.469 0.394,-0.484 0.352,-0.484C0.311,-0.484 0.278,-0.469 0.253,-0.44C0.228,-0.41 0.215,-0.365 0.215,-0.304Z" style="fill:white;fill-rule:nonzero;"/>
            </g>
            <g transform="matrix(96,0,0,96,815.199,568.281)">
                <path d="M0.326,-0.367C0.309,-0.367 0.294,-0.364 0.279,-0.359C0.264,-0.354 0.251,-0.346 0.24,-0.336C0.229,-0.325 0.22,-0.312 0.213,-0.297C0.206,-0.282 0.203,-0.264 0.203,-0.243C0.203,-0.202 0.215,-0.171 0.239,-0.15C0.262,-0.129 0.291,-0.119 0.325,-0.119C0.345,-0.119 0.362,-0.121 0.377,-0.126C0.392,-0.131 0.405,-0.136 0.416,-0.141C0.429,-0.132 0.439,-0.122 0.446,-0.111C0.453,-0.099 0.456,-0.086 0.456,-0.071C0.456,-0.044 0.443,-0.023 0.417,-0.008C0.391,0.008 0.355,0.015 0.309,0.015C0.267,0.015 0.229,0.009 0.195,-0.004C0.161,-0.016 0.132,-0.033 0.108,-0.056C0.083,-0.078 0.064,-0.105 0.051,-0.136C0.038,-0.167 0.031,-0.202 0.031,-0.24C0.031,-0.284 0.038,-0.323 0.053,-0.356C0.067,-0.389 0.086,-0.416 0.111,-0.437C0.136,-0.458 0.164,-0.474 0.197,-0.485C0.229,-0.496 0.263,-0.501 0.299,-0.501C0.347,-0.501 0.384,-0.492 0.41,-0.475C0.436,-0.458 0.449,-0.435 0.449,-0.408C0.449,-0.395 0.446,-0.384 0.44,-0.373C0.434,-0.362 0.427,-0.352 0.419,-0.344C0.408,-0.349 0.394,-0.355 0.378,-0.36C0.362,-0.365 0.345,-0.367 0.326,-0.367Z" style="fill:white;fill-rule:nonzero;"/>
            </g>
            <g transform="matrix(96,0,0,96,860.703,568.281)">
                <path d="M0.309,0.016C0.27,0.016 0.233,0.011 0.2,-0.001C0.166,-0.012 0.136,-0.028 0.112,-0.05C0.087,-0.072 0.067,-0.1 0.053,-0.133C0.038,-0.166 0.031,-0.205 0.031,-0.25C0.031,-0.294 0.038,-0.332 0.053,-0.364C0.067,-0.395 0.086,-0.421 0.109,-0.442C0.132,-0.462 0.159,-0.477 0.189,-0.487C0.219,-0.496 0.25,-0.501 0.281,-0.501C0.316,-0.501 0.349,-0.496 0.378,-0.485C0.407,-0.474 0.432,-0.46 0.453,-0.441C0.474,-0.422 0.49,-0.4 0.502,-0.374C0.513,-0.348 0.519,-0.32 0.519,-0.289C0.519,-0.266 0.513,-0.249 0.5,-0.237C0.487,-0.225 0.47,-0.217 0.447,-0.214L0.2,-0.177C0.207,-0.155 0.222,-0.139 0.245,-0.128C0.268,-0.117 0.294,-0.111 0.323,-0.111C0.35,-0.111 0.376,-0.115 0.401,-0.122C0.425,-0.129 0.445,-0.137 0.46,-0.146C0.471,-0.139 0.48,-0.13 0.487,-0.118C0.494,-0.106 0.498,-0.093 0.498,-0.08C0.498,-0.05 0.484,-0.028 0.456,-0.013C0.435,-0.002 0.411,0.006 0.384,0.01C0.357,0.014 0.332,0.016 0.309,0.016ZM0.281,-0.377C0.265,-0.377 0.251,-0.374 0.24,-0.369C0.228,-0.364 0.218,-0.357 0.211,-0.349C0.204,-0.34 0.198,-0.331 0.195,-0.321C0.191,-0.31 0.189,-0.3 0.188,-0.289L0.359,-0.317C0.357,-0.33 0.35,-0.344 0.337,-0.357C0.324,-0.37 0.306,-0.377 0.281,-0.377Z" style="fill:white;fill-rule:nonzero;"/>
            </g>
            <g transform="matrix(96,0,0,96,913.407,568.281)">
                <path d="M0.26,-0.108C0.271,-0.108 0.284,-0.109 0.298,-0.112C0.311,-0.114 0.321,-0.117 0.328,-0.121L0.328,-0.201L0.256,-0.195C0.237,-0.194 0.222,-0.19 0.21,-0.183C0.198,-0.176 0.192,-0.166 0.192,-0.153C0.192,-0.14 0.197,-0.129 0.208,-0.121C0.218,-0.112 0.235,-0.108 0.26,-0.108ZM0.252,-0.501C0.288,-0.501 0.321,-0.497 0.351,-0.49C0.38,-0.483 0.405,-0.472 0.427,-0.457C0.448,-0.442 0.464,-0.423 0.475,-0.4C0.486,-0.377 0.492,-0.349 0.492,-0.318L0.492,-0.094C0.492,-0.077 0.487,-0.063 0.478,-0.052C0.468,-0.041 0.456,-0.031 0.443,-0.023C0.4,0.003 0.339,0.016 0.26,0.016C0.225,0.016 0.193,0.013 0.165,0.006C0.136,-0.001 0.112,-0.011 0.092,-0.024C0.071,-0.037 0.055,-0.054 0.045,-0.075C0.034,-0.096 0.028,-0.12 0.028,-0.147C0.028,-0.193 0.042,-0.228 0.069,-0.253C0.096,-0.278 0.139,-0.293 0.196,-0.299L0.327,-0.313L0.327,-0.32C0.327,-0.339 0.319,-0.353 0.302,-0.362C0.285,-0.37 0.26,-0.374 0.228,-0.374C0.203,-0.374 0.178,-0.371 0.154,-0.366C0.13,-0.361 0.108,-0.354 0.089,-0.346C0.08,-0.352 0.073,-0.361 0.067,-0.374C0.061,-0.386 0.058,-0.399 0.058,-0.412C0.058,-0.429 0.062,-0.443 0.071,-0.454C0.079,-0.464 0.092,-0.473 0.109,-0.48C0.128,-0.487 0.151,-0.493 0.178,-0.496C0.204,-0.499 0.229,-0.501 0.252,-0.501Z" style="fill:white;fill-rule:nonzero;"/>
            </g>
            <g transform="matrix(96,0,0,96,965.631,568.281)">
                <path d="M0.36,-0.308C0.36,-0.329 0.354,-0.344 0.343,-0.354C0.331,-0.363 0.315,-0.368 0.295,-0.368C0.282,-0.368 0.269,-0.366 0.256,-0.363C0.243,-0.36 0.231,-0.355 0.222,-0.348L0.222,-0.001C0.215,0.001 0.205,0.003 0.191,0.005C0.176,0.007 0.161,0.008 0.146,0.008C0.131,0.008 0.118,0.007 0.107,0.005C0.095,0.003 0.085,-0.001 0.077,-0.007C0.069,-0.013 0.063,-0.021 0.059,-0.032C0.054,-0.042 0.052,-0.055 0.052,-0.072L0.052,-0.372C0.052,-0.39 0.056,-0.405 0.064,-0.416C0.071,-0.427 0.082,-0.438 0.095,-0.447C0.118,-0.463 0.146,-0.476 0.181,-0.486C0.215,-0.496 0.253,-0.501 0.295,-0.501C0.37,-0.501 0.428,-0.485 0.469,-0.452C0.51,-0.419 0.53,-0.373 0.53,-0.314L0.53,-0.001C0.523,0.001 0.513,0.003 0.499,0.005C0.484,0.007 0.469,0.008 0.454,0.008C0.439,0.008 0.426,0.007 0.415,0.005C0.403,0.003 0.393,-0.001 0.385,-0.007C0.377,-0.013 0.371,-0.021 0.367,-0.032C0.362,-0.042 0.36,-0.055 0.36,-0.072L0.36,-0.308Z" style="fill:white;fill-rule:nonzero;"/>
            </g>
            <g transform="matrix(96,0,0,96,752.607,664.281)">
                <path d="M0.329,-0.015C0.32,-0.007 0.307,-0 0.291,0.005C0.275,0.01 0.256,0.012 0.234,0.012C0.207,0.012 0.183,0.008 0.163,0.001C0.143,-0.007 0.13,-0.018 0.123,-0.032C0.116,-0.048 0.107,-0.073 0.098,-0.108C0.088,-0.143 0.078,-0.181 0.069,-0.222C0.06,-0.263 0.051,-0.305 0.043,-0.348C0.034,-0.391 0.028,-0.428 0.023,-0.461C0.032,-0.47 0.045,-0.478 0.061,-0.486C0.076,-0.493 0.093,-0.496 0.112,-0.496C0.135,-0.496 0.155,-0.491 0.17,-0.481C0.185,-0.47 0.194,-0.452 0.197,-0.427C0.204,-0.376 0.209,-0.335 0.214,-0.302C0.219,-0.269 0.223,-0.242 0.226,-0.221C0.229,-0.2 0.231,-0.184 0.233,-0.173C0.234,-0.162 0.236,-0.153 0.237,-0.146L0.241,-0.146C0.243,-0.157 0.247,-0.172 0.252,-0.193C0.257,-0.213 0.262,-0.236 0.269,-0.262C0.276,-0.288 0.283,-0.316 0.29,-0.347C0.297,-0.377 0.305,-0.407 0.312,-0.437C0.325,-0.444 0.339,-0.45 0.352,-0.454C0.365,-0.458 0.381,-0.46 0.4,-0.46C0.423,-0.46 0.443,-0.456 0.46,-0.449C0.477,-0.442 0.487,-0.43 0.492,-0.415C0.5,-0.386 0.508,-0.357 0.515,-0.33C0.522,-0.302 0.529,-0.276 0.535,-0.253C0.541,-0.229 0.546,-0.208 0.551,-0.19C0.556,-0.171 0.559,-0.157 0.561,-0.146L0.566,-0.146C0.573,-0.197 0.58,-0.251 0.588,-0.306C0.595,-0.361 0.601,-0.418 0.607,-0.475C0.619,-0.482 0.632,-0.488 0.645,-0.491C0.658,-0.494 0.672,-0.496 0.685,-0.496C0.708,-0.496 0.728,-0.491 0.743,-0.481C0.758,-0.471 0.766,-0.454 0.766,-0.429C0.766,-0.418 0.764,-0.402 0.761,-0.381C0.758,-0.36 0.753,-0.336 0.748,-0.309C0.743,-0.282 0.737,-0.254 0.73,-0.225C0.723,-0.196 0.716,-0.167 0.709,-0.14C0.702,-0.113 0.695,-0.088 0.689,-0.066C0.682,-0.044 0.677,-0.027 0.672,-0.015C0.663,-0.007 0.648,-0 0.629,0.005C0.61,0.01 0.589,0.012 0.567,0.012C0.511,0.012 0.478,-0.002 0.468,-0.03C0.464,-0.042 0.459,-0.057 0.453,-0.076C0.447,-0.094 0.441,-0.114 0.434,-0.136C0.427,-0.158 0.421,-0.181 0.415,-0.205C0.409,-0.228 0.404,-0.251 0.4,-0.273C0.395,-0.25 0.39,-0.226 0.383,-0.201C0.376,-0.175 0.37,-0.151 0.363,-0.128C0.356,-0.104 0.349,-0.082 0.343,-0.063C0.337,-0.043 0.332,-0.027 0.329,-0.015Z" style="fill:white;fill-rule:nonzero;"/>
            </g>
            <g transform="matrix(96,0,0,96,828.543,664.281)">
                <path d="M0.048,-0.621C0.048,-0.646 0.056,-0.668 0.074,-0.685C0.091,-0.702 0.113,-0.711 0.141,-0.711C0.169,-0.711 0.192,-0.702 0.209,-0.685C0.226,-0.668 0.234,-0.646 0.234,-0.621C0.234,-0.596 0.226,-0.574 0.209,-0.557C0.192,-0.54 0.169,-0.531 0.141,-0.531C0.113,-0.531 0.091,-0.54 0.074,-0.557C0.056,-0.574 0.048,-0.596 0.048,-0.621ZM0.226,-0.001C0.219,0 0.208,0.002 0.194,0.005C0.179,0.007 0.165,0.008 0.15,0.008C0.135,0.008 0.122,0.007 0.111,0.005C0.099,0.003 0.089,-0.001 0.081,-0.007C0.073,-0.013 0.067,-0.021 0.063,-0.032C0.058,-0.042 0.056,-0.055 0.056,-0.072L0.056,-0.479C0.063,-0.48 0.074,-0.482 0.089,-0.485C0.103,-0.487 0.117,-0.488 0.132,-0.488C0.147,-0.488 0.16,-0.487 0.172,-0.485C0.183,-0.483 0.193,-0.479 0.201,-0.473C0.209,-0.467 0.215,-0.459 0.22,-0.449C0.224,-0.438 0.226,-0.425 0.226,-0.408L0.226,-0.001Z" style="fill:white;fill-rule:nonzero;"/>
            </g>
            <g transform="matrix(96,0,0,96,855.615,664.281)">
                <path d="M0.222,-0.167C0.222,-0.15 0.228,-0.137 0.239,-0.13C0.25,-0.123 0.265,-0.119 0.285,-0.119C0.295,-0.119 0.305,-0.12 0.316,-0.122C0.327,-0.123 0.336,-0.125 0.344,-0.128C0.35,-0.121 0.355,-0.113 0.36,-0.104C0.364,-0.094 0.366,-0.084 0.366,-0.071C0.366,-0.046 0.357,-0.025 0.338,-0.009C0.319,0.007 0.285,0.015 0.237,0.015C0.178,0.015 0.133,0.002 0.102,-0.025C0.07,-0.052 0.054,-0.095 0.054,-0.155L0.054,-0.583C0.061,-0.585 0.072,-0.587 0.086,-0.59C0.099,-0.592 0.114,-0.593 0.129,-0.593C0.158,-0.593 0.181,-0.588 0.198,-0.578C0.214,-0.567 0.222,-0.545 0.222,-0.512L0.222,-0.448L0.353,-0.448C0.357,-0.441 0.361,-0.432 0.365,-0.421C0.368,-0.409 0.37,-0.397 0.37,-0.384C0.37,-0.361 0.365,-0.344 0.355,-0.334C0.344,-0.323 0.33,-0.318 0.313,-0.318L0.222,-0.318L0.222,-0.167Z" style="fill:white;fill-rule:nonzero;"/>
            </g>
            <g transform="matrix(96,0,0,96,894.015,664.281)">
                <path d="M0.532,-0.001C0.525,0.001 0.515,0.003 0.501,0.005C0.486,0.007 0.471,0.008 0.456,0.008C0.441,0.008 0.428,0.007 0.417,0.005C0.405,0.003 0.395,-0.001 0.387,-0.007C0.379,-0.013 0.373,-0.021 0.369,-0.032C0.364,-0.042 0.362,-0.055 0.362,-0.072L0.362,-0.294C0.362,-0.321 0.355,-0.341 0.342,-0.352C0.328,-0.363 0.311,-0.368 0.291,-0.368C0.278,-0.368 0.265,-0.366 0.253,-0.363C0.241,-0.36 0.231,-0.356 0.224,-0.351L0.224,-0.001C0.217,0.001 0.207,0.003 0.193,0.005C0.178,0.007 0.163,0.008 0.148,0.008C0.133,0.008 0.12,0.007 0.109,0.005C0.097,0.003 0.087,-0.001 0.079,-0.007C0.071,-0.013 0.065,-0.021 0.061,-0.032C0.056,-0.042 0.054,-0.055 0.054,-0.072L0.054,-0.652C0.061,-0.653 0.072,-0.655 0.087,-0.658C0.101,-0.66 0.115,-0.661 0.13,-0.661C0.145,-0.661 0.158,-0.66 0.17,-0.658C0.181,-0.656 0.191,-0.652 0.199,-0.646C0.207,-0.64 0.213,-0.632 0.218,-0.622C0.222,-0.611 0.224,-0.598 0.224,-0.581L0.224,-0.483C0.233,-0.486 0.246,-0.49 0.264,-0.495C0.281,-0.499 0.301,-0.501 0.322,-0.501C0.388,-0.501 0.44,-0.485 0.477,-0.452C0.514,-0.419 0.532,-0.369 0.532,-0.304L0.532,-0.001Z" style="fill:white;fill-rule:nonzero;"/>
            </g>
            <g transform="matrix(96,0,0,96,969.375,664.281)">
                <path d="M0.26,-0.108C0.271,-0.108 0.284,-0.109 0.298,-0.112C0.311,-0.114 0.321,-0.117 0.328,-0.121L0.328,-0.201L0.256,-0.195C0.237,-0.194 0.222,-0.19 0.21,-0.183C0.198,-0.176 0.192,-0.166 0.192,-0.153C0.192,-0.14 0.197,-0.129 0.208,-0.121C0.218,-0.112 0.235,-0.108 0.26,-0.108ZM0.252,-0.501C0.288,-0.501 0.321,-0.497 0.351,-0.49C0.38,-0.483 0.405,-0.472 0.427,-0.457C0.448,-0.442 0.464,-0.423 0.475,-0.4C0.486,-0.377 0.492,-0.349 0.492,-0.318L0.492,-0.094C0.492,-0.077 0.487,-0.063 0.478,-0.052C0.468,-0.041 0.456,-0.031 0.443,-0.023C0.4,0.003 0.339,0.016 0.26,0.016C0.225,0.016 0.193,0.013 0.165,0.006C0.136,-0.001 0.112,-0.011 0.092,-0.024C0.071,-0.037 0.055,-0.054 0.045,-0.075C0.034,-0.096 0.028,-0.12 0.028,-0.147C0.028,-0.193 0.042,-0.228 0.069,-0.253C0.096,-0.278 0.139,-0.293 0.196,-0.299L0.327,-0.313L0.327,-0.32C0.327,-0.339 0.319,-0.353 0.302,-0.362C0.285,-0.37 0.26,-0.374 0.228,-0.374C0.203,-0.374 0.178,-0.371 0.154,-0.366C0.13,-0.361 0.108,-0.354 0.089,-0.346C0.08,-0.352 0.073,-0.361 0.067,-0.374C0.061,-0.386 0.058,-0.399 0.058,-0.412C0.058,-0.429 0.062,-0.443 0.071,-0.454C0.079,-0.464 0.092,-0.473 0.109,-0.48C0.128,-0.487 0.151,-0.493 0.178,-0.496C0.204,-0.499 0.229,-0.501 0.252,-0.501Z" style="fill:white;fill-rule:nonzero;"/>
            </g>
            <g transform="matrix(96,0,0,96,839.199,760.281)">
                <path d="M0.054,-0.486C0.054,-0.52 0.06,-0.549 0.072,-0.574C0.083,-0.598 0.099,-0.618 0.119,-0.634C0.139,-0.649 0.163,-0.661 0.19,-0.668C0.217,-0.675 0.245,-0.679 0.276,-0.679C0.325,-0.679 0.362,-0.673 0.385,-0.66C0.408,-0.647 0.42,-0.624 0.42,-0.593C0.42,-0.58 0.417,-0.568 0.412,-0.557C0.406,-0.546 0.4,-0.538 0.393,-0.533C0.38,-0.536 0.367,-0.539 0.354,-0.542C0.34,-0.544 0.324,-0.545 0.306,-0.545C0.277,-0.545 0.255,-0.54 0.239,-0.531C0.223,-0.521 0.215,-0.504 0.215,-0.48L0.215,-0.448L0.379,-0.448C0.383,-0.441 0.387,-0.432 0.391,-0.421C0.394,-0.409 0.396,-0.397 0.396,-0.384C0.396,-0.361 0.391,-0.344 0.381,-0.334C0.37,-0.323 0.356,-0.318 0.339,-0.318L0.224,-0.318L0.224,-0.001C0.217,0.001 0.207,0.003 0.193,0.005C0.178,0.007 0.163,0.008 0.148,0.008C0.133,0.008 0.12,0.007 0.109,0.005C0.097,0.003 0.087,-0.001 0.079,-0.007C0.071,-0.013 0.065,-0.021 0.061,-0.032C0.056,-0.042 0.054,-0.055 0.054,-0.072L0.054,-0.486Z" style="fill:white;fill-rule:nonzero;"/>
            </g>
            <g transform="matrix(96,0,0,96,878.559,760.281)">
                <path d="M0.222,-0.001C0.215,0.001 0.205,0.003 0.191,0.005C0.176,0.007 0.161,0.008 0.146,0.008C0.131,0.008 0.118,0.007 0.107,0.005C0.095,0.003 0.085,-0.001 0.077,-0.007C0.069,-0.013 0.063,-0.021 0.059,-0.032C0.054,-0.042 0.052,-0.055 0.052,-0.072L0.052,-0.372C0.052,-0.387 0.055,-0.401 0.061,-0.412C0.066,-0.423 0.074,-0.432 0.085,-0.441C0.096,-0.45 0.109,-0.458 0.125,-0.465C0.14,-0.472 0.157,-0.478 0.175,-0.483C0.193,-0.488 0.212,-0.493 0.231,-0.496C0.25,-0.499 0.27,-0.5 0.289,-0.5C0.321,-0.5 0.346,-0.494 0.365,-0.482C0.384,-0.469 0.393,-0.449 0.393,-0.421C0.393,-0.412 0.392,-0.403 0.389,-0.394C0.386,-0.385 0.383,-0.376 0.379,-0.369C0.365,-0.369 0.351,-0.368 0.336,-0.367C0.321,-0.366 0.307,-0.364 0.293,-0.361C0.279,-0.358 0.266,-0.356 0.254,-0.353C0.241,-0.349 0.231,-0.346 0.222,-0.342L0.222,-0.001Z" style="fill:white;fill-rule:nonzero;"/>
            </g>
            <g transform="matrix(96,0,0,96,916.191,760.281)">
                <path d="M0.309,0.016C0.27,0.016 0.233,0.011 0.2,-0.001C0.166,-0.012 0.136,-0.028 0.112,-0.05C0.087,-0.072 0.067,-0.1 0.053,-0.133C0.038,-0.166 0.031,-0.205 0.031,-0.25C0.031,-0.294 0.038,-0.332 0.053,-0.364C0.067,-0.395 0.086,-0.421 0.109,-0.442C0.132,-0.462 0.159,-0.477 0.189,-0.487C0.219,-0.496 0.25,-0.501 0.281,-0.501C0.316,-0.501 0.349,-0.496 0.378,-0.485C0.407,-0.474 0.432,-0.46 0.453,-0.441C0.474,-0.422 0.49,-0.4 0.502,-0.374C0.513,-0.348 0.519,-0.32 0.519,-0.289C0.519,-0.266 0.513,-0.249 0.5,-0.237C0.487,-0.225 0.47,-0.217 0.447,-0.214L0.2,-0.177C0.207,-0.155 0.222,-0.139 0.245,-0.128C0.268,-0.117 0.294,-0.111 0.323,-0.111C0.35,-0.111 0.376,-0.115 0.401,-0.122C0.425,-0.129 0.445,-0.137 0.46,-0.146C0.471,-0.139 0.48,-0.13 0.487,-0.118C0.494,-0.106 0.498,-0.093 0.498,-0.08C0.498,-0.05 0.484,-0.028 0.456,-0.013C0.435,-0.002 0.411,0.006 0.384,0.01C0.357,0.014 0.332,0.016 0.309,0.016ZM0.281,-0.377C0.265,-0.377 0.251,-0.374 0.24,-0.369C0.228,-0.364 0.218,-0.357 0.211,-0.349C0.204,-0.34 0.198,-0.331 0.195,-0.321C0.191,-0.31 0.189,-0.3 0.188,-0.289L0.359,-0.317C0.357,-0.33 0.35,-0.344 0.337,-0.357C0.324,-0.37 0.306,-0.377 0.281,-0.377Z" style="fill:white;fill-rule:nonzero;"/>
            </g>
            <g transform="matrix(96,0,0,96,968.895,760.281)">
                <path d="M0.309,0.016C0.27,0.016 0.233,0.011 0.2,-0.001C0.166,-0.012 0.136,-0.028 0.112,-0.05C0.087,-0.072 0.067,-0.1 0.053,-0.133C0.038,-0.166 0.031,-0.205 0.031,-0.25C0.031,-0.294 0.038,-0.332 0.053,-0.364C0.067,-0.395 0.086,-0.421 0.109,-0.442C0.132,-0.462 0.159,-0.477 0.189,-0.487C0.219,-0.496 0.25,-0.501 0.281,-0.501C0.316,-0.501 0.349,-0.496 0.378,-0.485C0.407,-0.474 0.432,-0.46 0.453,-0.441C0.474,-0.422 0.49,-0.4 0.502,-0.374C0.513,-0.348 0.519,-0.32 0.519,-0.289C0.519,-0.266 0.513,-0.249 0.5,-0.237C0.487,-0.225 0.47,-0.217 0.447,-0.214L0.2,-0.177C0.207,-0.155 0.222,-0.139 0.245,-0.128C0.268,-0.117 0.294,-0.111 0.323,-0.111C0.35,-0.111 0.376,-0.115 0.401,-0.122C0.425,-0.129 0.445,-0.137 0.46,-0.146C0.471,-0.139 0.48,-0.13 0.487,-0.118C0.494,-0.106 0.498,-0.093 0.498,-0.08C0.498,-0.05 0.484,-0.028 0.456,-0.013C0.435,-0.002 0.411,0.006 0.384,0.01C0.357,0.014 0.332,0.016 0.309,0.016ZM0.281,-0.377C0.265,-0.377 0.251,-0.374 0.24,-0.369C0.228,-0.364 0.218,-0.357 0.211,-0.349C0.204,-0.34 0.198,-0.331 0.195,-0.321C0.191,-0.31 0.189,-0.3 0.188,-0.289L0.359,-0.317C0.357,-0.33 0.35,-0.344 0.337,-0.357C0.324,-0.37 0.306,-0.377 0.281,-0.377Z" style="fill:white;fill-rule:nonzero;"/>
            </g>
            <g transform="matrix(96,0,0,96,779.199,856.281)">
                <path d="M0.241,-0.241C0.212,-0.251 0.185,-0.261 0.161,-0.272C0.137,-0.282 0.116,-0.294 0.099,-0.309C0.082,-0.324 0.068,-0.341 0.059,-0.362C0.049,-0.382 0.044,-0.407 0.044,-0.436C0.044,-0.481 0.058,-0.52 0.086,-0.551C0.114,-0.582 0.154,-0.603 0.206,-0.614L0.206,-0.695C0.212,-0.696 0.221,-0.698 0.234,-0.7C0.247,-0.702 0.26,-0.703 0.273,-0.703C0.299,-0.703 0.319,-0.699 0.334,-0.69C0.349,-0.681 0.356,-0.661 0.356,-0.632L0.356,-0.619C0.397,-0.614 0.431,-0.603 0.456,-0.587C0.481,-0.571 0.493,-0.549 0.493,-0.521C0.493,-0.504 0.489,-0.489 0.481,-0.477C0.473,-0.464 0.463,-0.454 0.452,-0.445C0.437,-0.454 0.418,-0.463 0.393,-0.47C0.368,-0.476 0.341,-0.48 0.312,-0.48C0.282,-0.48 0.26,-0.476 0.246,-0.468C0.232,-0.459 0.225,-0.449 0.225,-0.436C0.225,-0.426 0.229,-0.418 0.238,-0.412C0.247,-0.405 0.26,-0.399 0.277,-0.394L0.33,-0.377C0.393,-0.357 0.441,-0.332 0.475,-0.301C0.508,-0.27 0.525,-0.227 0.525,-0.174C0.525,-0.129 0.511,-0.09 0.482,-0.059C0.453,-0.027 0.411,-0.005 0.356,0.006L0.356,0.086C0.35,0.087 0.341,0.089 0.328,0.091C0.315,0.093 0.302,0.094 0.289,0.094C0.263,0.094 0.243,0.09 0.228,0.081C0.213,0.072 0.206,0.052 0.206,0.023L0.206,0.013C0.182,0.01 0.16,0.006 0.141,-0C0.121,-0.006 0.104,-0.014 0.09,-0.023C0.075,-0.032 0.064,-0.043 0.056,-0.056C0.048,-0.069 0.044,-0.083 0.044,-0.099C0.044,-0.118 0.05,-0.135 0.061,-0.149C0.072,-0.162 0.085,-0.173 0.098,-0.18C0.117,-0.165 0.139,-0.153 0.167,-0.142C0.194,-0.131 0.223,-0.126 0.255,-0.126C0.288,-0.126 0.311,-0.131 0.324,-0.141C0.337,-0.151 0.344,-0.163 0.344,-0.176C0.344,-0.189 0.339,-0.2 0.328,-0.207C0.317,-0.214 0.302,-0.22 0.283,-0.227L0.241,-0.241Z" style="fill:white;fill-rule:nonzero;"/>
            </g>
            <g transform="matrix(96,0,0,96,833.439,856.281)">
                <path d="M0.241,-0.623C0.279,-0.623 0.313,-0.618 0.342,-0.609C0.371,-0.599 0.396,-0.586 0.417,-0.569C0.438,-0.552 0.453,-0.533 0.464,-0.51C0.475,-0.487 0.48,-0.463 0.48,-0.437C0.48,-0.367 0.44,-0.3 0.361,-0.237L0.23,-0.132L0.47,-0.132C0.474,-0.125 0.478,-0.115 0.482,-0.104C0.485,-0.093 0.487,-0.08 0.487,-0.067C0.487,-0.043 0.482,-0.026 0.471,-0.016C0.46,-0.005 0.446,-0 0.429,-0L0.082,-0C0.067,-0.01 0.056,-0.023 0.048,-0.039C0.039,-0.054 0.035,-0.073 0.035,-0.094C0.035,-0.117 0.04,-0.136 0.049,-0.152C0.058,-0.167 0.069,-0.18 0.08,-0.189L0.218,-0.307C0.235,-0.322 0.25,-0.335 0.261,-0.347C0.272,-0.358 0.282,-0.369 0.289,-0.378C0.296,-0.387 0.301,-0.396 0.304,-0.404C0.307,-0.412 0.308,-0.42 0.308,-0.427C0.308,-0.446 0.3,-0.46 0.284,-0.471C0.267,-0.482 0.247,-0.487 0.223,-0.487C0.196,-0.487 0.172,-0.483 0.152,-0.475C0.13,-0.466 0.113,-0.457 0.099,-0.448C0.088,-0.456 0.078,-0.466 0.071,-0.478C0.064,-0.49 0.06,-0.504 0.06,-0.52C0.06,-0.555 0.076,-0.581 0.109,-0.598C0.142,-0.615 0.186,-0.623 0.241,-0.623Z" style="fill:white;fill-rule:nonzero;"/>
            </g>
            <g transform="matrix(96,0,0,96,883.551,856.281)">
                <path d="M0.4,-0.304C0.4,-0.363 0.392,-0.408 0.375,-0.44C0.358,-0.472 0.333,-0.488 0.302,-0.488C0.271,-0.488 0.247,-0.472 0.231,-0.44C0.214,-0.408 0.206,-0.363 0.206,-0.304C0.206,-0.245 0.214,-0.2 0.231,-0.168C0.247,-0.135 0.271,-0.119 0.302,-0.119C0.333,-0.119 0.358,-0.135 0.375,-0.168C0.392,-0.2 0.4,-0.245 0.4,-0.304ZM0.571,-0.304C0.571,-0.253 0.564,-0.207 0.551,-0.167C0.538,-0.127 0.519,-0.093 0.496,-0.067C0.472,-0.04 0.444,-0.019 0.411,-0.005C0.378,0.009 0.342,0.016 0.303,0.016C0.264,0.016 0.228,0.009 0.195,-0.005C0.162,-0.019 0.133,-0.04 0.11,-0.067C0.086,-0.093 0.067,-0.127 0.055,-0.167C0.042,-0.207 0.035,-0.253 0.035,-0.304C0.035,-0.355 0.042,-0.401 0.055,-0.441C0.067,-0.48 0.086,-0.514 0.11,-0.541C0.133,-0.568 0.162,-0.588 0.195,-0.602C0.228,-0.616 0.264,-0.623 0.303,-0.623C0.342,-0.623 0.378,-0.616 0.411,-0.602C0.444,-0.588 0.472,-0.568 0.496,-0.541C0.519,-0.514 0.538,-0.48 0.551,-0.441C0.564,-0.401 0.571,-0.355 0.571,-0.304Z" style="fill:white;fill-rule:nonzero;"/>
            </g>
            <g transform="matrix(96,0,0,96,941.727,856.281)">
                <path d="M0.4,-0.304C0.4,-0.363 0.392,-0.408 0.375,-0.44C0.358,-0.472 0.333,-0.488 0.302,-0.488C0.271,-0.488 0.247,-0.472 0.231,-0.44C0.214,-0.408 0.206,-0.363 0.206,-0.304C0.206,-0.245 0.214,-0.2 0.231,-0.168C0.247,-0.135 0.271,-0.119 0.302,-0.119C0.333,-0.119 0.358,-0.135 0.375,-0.168C0.392,-0.2 0.4,-0.245 0.4,-0.304ZM0.571,-0.304C0.571,-0.253 0.564,-0.207 0.551,-0.167C0.538,-0.127 0.519,-0.093 0.496,-0.067C0.472,-0.04 0.444,-0.019 0.411,-0.005C0.378,0.009 0.342,0.016 0.303,0.016C0.264,0.016 0.228,0.009 0.195,-0.005C0.162,-0.019 0.133,-0.04 0.11,-0.067C0.086,-0.093 0.067,-0.127 0.055,-0.167C0.042,-0.207 0.035,-0.253 0.035,-0.304C0.035,-0.355 0.042,-0.401 0.055,-0.441C0.067,-0.48 0.086,-0.514 0.11,-0.541C0.133,-0.568 0.162,-0.588 0.195,-0.602C0.228,-0.616 0.264,-0.623 0.303,-0.623C0.342,-0.623 0.378,-0.616 0.411,-0.602C0.444,-0.588 0.472,-0.568 0.496,-0.541C0.519,-0.514 0.538,-0.48 0.551,-0.441C0.564,-0.401 0.571,-0.355 0.571,-0.304Z" style="fill:white;fill-rule:nonzero;"/>
            </g>
            <g transform="matrix(96,0,0,96,998.751,856.281)">
                <path d="M0.022,-0.081C0.022,-0.109 0.031,-0.132 0.048,-0.151C0.065,-0.17 0.089,-0.179 0.119,-0.179C0.149,-0.179 0.173,-0.17 0.19,-0.151C0.207,-0.132 0.216,-0.109 0.216,-0.081C0.216,-0.053 0.207,-0.03 0.19,-0.011C0.173,0.008 0.149,0.017 0.119,0.017C0.089,0.017 0.065,0.008 0.048,-0.011C0.031,-0.03 0.022,-0.053 0.022,-0.081Z" style="fill:white;fill-rule:nonzero;"/>
            </g>
        </g>
    </g>
</svg>
